<?xml version="1.0" standalone="no"?>
<!DOCTYPE svg PUBLIC "-//W3C//DTD SVG 1.1//EN" "http://www.w3.org/Graphics/SVG/1.1/DTD/svg11.dtd" >
<svg xmlns="http://www.w3.org/2000/svg">
<metadata>Generated by IcoMoon</metadata>
<defs>
<font id="icomoon" horiz-adv-x="1024">
<font-face units-per-em="1024" ascent="960" descent="-64" />
<missing-glyph horiz-adv-x="1024" />
<glyph unicode="&#x20;" horiz-adv-x="512" d="" />
<glyph unicode="&#xe900;" glyph-name="plus" d="M440.896 519.104v426.667h142.223v-426.667h426.665v-142.223h-426.665v-426.665h-142.223v426.665h-426.667v142.223h426.667z" />
<glyph unicode="&#xe901;" glyph-name="celebration" d="M640 874.667c29.964 0.003 59.401-7.882 85.351-22.864s47.498-36.531 62.478-62.482c14.98-25.951 22.863-55.388 22.858-85.353s-7.9-59.399-22.89-85.344l193.536 0.043v-85.333h-85.333v-426.667c0-11.315-4.497-22.17-12.493-30.174-8.004-7.996-18.859-12.493-30.174-12.493h-682.667c-11.316 0-22.169 4.497-30.17 12.493-8.002 8.004-12.497 18.859-12.497 30.174v426.667h-85.333v85.333l193.536-0.043c-21.169 36.655-27.96 79.869-19.056 121.251s32.869 77.978 67.241 102.682c34.371 24.705 76.698 35.755 118.758 31.005s80.858-24.962 108.854-56.709c15.983 18.202 35.672 32.777 57.748 42.749s46.029 15.107 70.252 15.065zM384 789.333c-22.143 0.099-43.458-8.414-59.441-23.739s-25.382-36.264-26.214-58.392c-0.831-22.128 6.973-43.713 21.762-60.193s35.405-26.568 57.493-28.129l6.4-0.213h85.333v85.333c0.001 20.392-7.301 40.11-20.582 55.584s-31.666 25.679-51.823 28.768l-6.571 0.768-6.357 0.213zM640 789.333c-21.529 0.007-42.264-8.125-58.050-22.763s-25.456-34.703-27.070-56.171l-0.213-6.4v-85.333h85.333c21.529-0.007 42.264 8.124 58.050 22.763s25.456 34.703 27.070 56.171l0.213 6.4c0 22.631-8.991 44.337-24.993 60.339s-37.708 24.994-60.34 24.994z" />
<glyph unicode="&#xe902;" glyph-name="button-arrow" horiz-adv-x="614" d="M376.244 447.994l-355.294 355.294 108.612 108.612 463.906-463.906-463.906-463.906-108.612 108.612 355.294 355.294z" />
<glyph unicode="&#xe903;" glyph-name="play" horiz-adv-x="717" d="M0 134.985v626.035c0 83.289 94.143 131.737 161.919 83.326l438.224-313.017c57.175-40.839 57.175-125.813 0-166.652l-438.224-313.017c-67.775-48.412-161.919 0.037-161.919 83.326z" />
<glyph unicode="&#xe904;" glyph-name="aside-main" d="M332.8 439.468h170.668v213.332h-170.668v-213.332zM332.8 268.8h170.668v128h-170.668v-128zM546.132 268.8h170.668v213.332h-170.668v-213.332zM546.132 652.8v-128h170.668v128h-170.668z" />
<glyph unicode="&#xe905;" glyph-name="aside-news" d="M655.36 243.2h-286.72c-16.294 0-31.923 6.474-43.446 17.994-11.52 11.523-17.994 27.151-17.994 43.446v327.68c0 5.432 2.158 10.642 5.998 14.482s9.050 5.998 14.482 5.998h286.72c5.432 0 10.642-2.158 14.482-5.998s5.998-9.050 5.998-14.482v-245.76h81.92v-81.92c0-16.294-6.474-31.923-17.994-43.446-11.523-11.52-27.151-17.994-43.446-17.994zM634.88 345.6v-40.96c0-5.432 2.158-10.642 5.998-14.482s9.050-5.998 14.482-5.998c5.432 0 10.642 2.158 14.482 5.998s5.998 9.050 5.998 14.482v40.96h-40.96zM389.12 550.4v-40.96h163.84v40.96h-163.84zM389.12 468.48v-40.96h163.84v40.96h-163.84zM389.12 386.56v-40.96h102.4v40.96h-102.4z" />
<glyph unicode="&#xe906;" glyph-name="hamburger" horiz-adv-x="1820" d="M1792 874.667c0 47.128-38.207 85.333-85.333 85.333h-1592.889c-47.128 0-85.333-38.205-85.333-85.333s38.205-85.333 85.333-85.333h1592.889c47.127 0 85.333 38.205 85.333 85.333zM1792 78.222c0 47.128-38.207 85.333-85.333 85.333h-1592.889c-47.128 0-85.333-38.205-85.333-85.333s38.205-85.333 85.333-85.333h1592.889c47.127 0 85.333 38.205 85.333 85.333z" />
<glyph unicode="&#xe907;" glyph-name="aside-contacts" d="M694.044 217.6h-318.577c-18.107 0-35.471 7.283-48.274 20.244-12.8 12.964-19.994 30.543-19.994 48.876v322.56c0 18.332 7.194 35.912 19.994 48.876 12.803 12.961 30.167 20.244 48.274 20.244h318.577c6.036 0 11.825-2.427 16.092-6.748s6.664-10.181 6.664-16.292v-414.72c0-6.111-2.396-11.971-6.664-16.292s-10.056-6.748-16.092-6.748zM671.288 263.68v46.080h-295.821c-6.036 0-11.825-2.427-16.092-6.748s-6.664-10.181-6.664-16.292c0-6.111 2.396-11.971 6.664-16.292s10.056-6.748 16.092-6.748h295.821zM512 494.080c12.070 0 23.647 4.854 32.182 13.496s13.33 20.362 13.33 32.584c0 12.221-4.795 23.941-13.33 32.584s-20.111 13.496-32.182 13.496c-12.070 0-23.647-4.854-32.182-13.496s-13.33-20.362-13.33-32.584c0-12.221 4.795-23.941 13.33-32.584s20.111-13.496 32.182-13.496zM443.732 401.92h136.535c0 18.332-7.194 35.912-19.996 48.876-12.803 12.961-30.167 20.244-48.271 20.244s-35.469-7.283-48.271-20.244c-12.803-12.964-19.996-30.543-19.996-48.876z" />
<glyph unicode="&#xe908;" glyph-name="aside-requests" d="M675.84 627.2l40.96-79.644v-258.844c0-5.281-2.158-10.345-5.998-14.080s-9.050-5.832-14.482-5.832h-368.64c-5.432 0-10.642 2.097-14.482 5.832s-5.998 8.799-5.998 14.080v258.765l40.96 79.724h327.68zM512 487.823l-81.92-79.647h61.44v-79.644h40.96v79.644h61.44l-81.92 79.647zM650.527 587.377h-277.053l-20.46-39.821h317.993l-20.48 39.821z" />
<glyph unicode="&#xe909;" glyph-name="aside-documents" d="M541.212 587.377h136.059c5.478 0 10.734-2.097 14.607-5.832 3.873-3.732 6.052-8.799 6.052-14.077v-19.912h-371.86v59.732c0 5.281 2.179 10.345 6.052 14.080s9.129 5.832 14.607 5.832h153.165l41.318-39.823zM327.867 507.732h368.266c2.857 0.003 5.683-0.568 8.302-1.674s4.969-2.724 6.904-4.751c1.935-2.025 3.415-4.419 4.342-7.025 0.929-2.604 1.285-5.368 1.047-8.113l-17.229-199.112c-0.43-4.974-2.783-9.613-6.595-12.995s-8.801-5.261-13.983-5.263h-333.844c-5.181 0.003-10.171 1.882-13.983 5.263s-6.164 8.020-6.595 12.995l-17.229 199.112c-0.238 2.744 0.118 5.509 1.047 8.113 0.927 2.606 2.406 5 4.342 7.025 1.935 2.028 4.285 3.645 6.904 4.751s5.445 1.677 8.302 1.674z" />
<glyph unicode="&#xe90a;" glyph-name="aside-communities" d="M450.56 308.623h61.44v120.62l-81.92 69.45-81.92-69.45v-120.62h61.44v79.644h40.96v-79.644zM696.32 268.8h-368.64c-5.432 0-10.642 2.097-14.482 5.832s-5.998 8.799-5.998 14.080v149.591c0 2.847 0.627 5.658 1.838 8.248 1.211 2.588 2.98 4.897 5.187 6.766l74.895 63.496v90.476c0 5.281 2.158 10.345 5.998 14.080s9.050 5.832 14.482 5.832h286.72c5.432 0 10.642-2.097 14.482-5.832s5.998-8.799 5.998-14.080v-318.577c0-5.281-2.158-10.345-5.998-14.080s-9.050-5.832-14.482-5.832zM593.92 467.912v-39.823h40.96v39.823h-40.96zM593.92 388.268v-39.823h40.96v39.823h-40.96zM593.92 547.556v-39.823h40.96v39.823h-40.96zM512 547.556v-39.823h40.96v39.823h-40.96z" />
<glyph unicode="&#xe90b;" glyph-name="aside-store" d="M716.8 448v-38.4c0-63.629-91.694-115.2-204.8-115.2-111.094 0-201.523 49.746-204.708 111.8l-0.092 3.4v38.4c0-63.629 91.694-115.2 204.8-115.2s204.8 51.571 204.8 115.2zM512 601.6c113.106 0 204.8-51.571 204.8-115.2s-91.694-115.2-204.8-115.2c-113.106 0-204.8 51.571-204.8 115.2s91.694 115.2 204.8 115.2z" />
<glyph unicode="&#xe90c;" glyph-name="aside-university" d="M238.933 420.362h150.303c4.697-87.528 32.396-172.227 80.268-245.429-59.962 9.486-115.115 38.717-156.832 83.121-41.718 44.407-67.649 101.482-73.739 162.307zM238.933 475.638c6.090 60.826 32.021 117.9 73.739 162.306 41.717 44.405 96.87 73.637 156.832 83.123-47.872-73.203-75.571-157.901-80.268-245.429h-150.303zM785.039 475.638h-150.303c-4.697 87.528-32.396 172.226-80.268 245.429 59.962-9.486 115.115-38.717 156.832-83.123s67.649-101.481 73.738-162.306zM785.039 420.362c-6.089-60.826-32.020-117.9-73.738-162.307-41.718-44.404-96.87-73.636-156.832-83.121 47.872 73.202 75.571 157.901 80.268 245.429h150.303zM444.204 420.362h135.564c-4.516-74.609-27.846-146.828-67.782-209.831-39.936 63.003-63.266 135.223-67.782 209.831zM444.204 475.638c4.516 74.609 27.846 146.827 67.782 209.831 39.936-63.003 63.266-135.222 67.782-209.831h-135.564z" />
<glyph unicode="&#xe90d;" glyph-name="aside-projects" d="M716.8 658.084v-368.968c-0.049-5.379-2.445-10.524-6.671-14.326-4.229-3.802-9.948-5.952-15.926-5.99h-364.406c-5.99 0-11.735 2.14-15.972 5.949s-6.62 8.978-6.625 14.367v368.968c0.049 5.379 2.445 10.524 6.671 14.326 4.229 3.802 9.948 5.952 15.926 5.99h364.406c12.47 0 22.597-9.093 22.597-20.316zM495.913 450.621l-56.32 50.708-32.177-28.979 88.497-79.647 128.727 115.855-32.177 28.959-96.55-86.897z" />
<glyph unicode="&#xe90e;" glyph-name="aside-schedule" d="M307.2 473.6h409.6v-184.32c0-5.432-2.158-10.642-5.998-14.482s-9.050-5.998-14.482-5.998h-368.64c-5.432 0-10.642 2.158-14.482 5.998s-5.998 9.050-5.998 14.482v184.32zM614.4 637.44h81.92c5.432 0 10.642-2.158 14.482-5.998s5.998-9.050 5.998-14.482v-102.4h-409.6v102.4c0 5.432 2.158 10.642 5.998 14.482s9.050 5.998 14.482 5.998h81.92v40.96h40.96v-40.96h122.88v40.96h40.96v-40.96z" />
<glyph unicode="&#xe90f;" glyph-name="aside-about" d="M679.565 289.646c0-5.53-2.207-10.831-6.136-14.74-3.927-3.909-9.254-6.106-14.81-6.106h-293.238c-5.555 0-10.883 2.196-14.81 6.106-3.93 3.909-6.136 9.211-6.136 14.74v187.62h-62.835l216.305 195.707c3.855 3.492 8.881 5.427 14.095 5.427s10.24-1.935 14.095-5.427l216.305-195.707h-62.835v-187.62zM512 352.187l70.356 70.024c4.375 4.355 7.846 9.526 10.214 15.217s3.589 11.789 3.589 17.948c0 6.162-1.221 12.26-3.589 17.951s-5.839 10.862-10.214 15.217c-4.378 4.357-9.572 7.811-15.291 10.168-5.716 2.358-11.845 3.571-18.035 3.571-6.188 0-12.316-1.213-18.033-3.571-5.719-2.358-10.913-5.811-15.291-10.168l-3.707-3.689-3.707 3.689c-4.378 4.357-9.572 7.811-15.291 10.168-5.716 2.358-11.845 3.571-18.033 3.571-6.19 0-12.319-1.213-18.035-3.571-5.719-2.358-10.913-5.811-15.291-10.168-4.375-4.355-7.846-9.526-10.214-15.217s-3.589-11.789-3.589-17.951c0-6.159 1.221-12.257 3.589-17.948s5.839-10.862 10.214-15.217l70.356-70.024z" />
<glyph unicode="&#xe910;" glyph-name="aside-media" d="M675.84 587.377h-327.68v-278.753l190.3 185.052c3.84 3.732 9.050 5.829 14.479 5.829s10.639-2.097 14.479-5.829l108.421-105.608v199.309zM307.2 607.429c0.038 5.228 2.189 10.232 5.99 13.932 3.802 3.702 8.947 5.798 14.326 5.839h368.968c11.223 0 20.316-8.86 20.316-19.771v-318.858c-0.038-5.228-2.189-10.232-5.99-13.932-3.802-3.702-8.947-5.798-14.326-5.839h-368.968c-5.389 0.005-10.557 2.092-14.367 5.798s-5.949 8.732-5.949 13.972v318.858zM430.080 467.912c-10.862 0-21.281 4.196-28.964 11.663-7.68 7.468-11.996 17.597-11.996 28.157 0 10.563 4.316 20.692 11.996 28.16 7.683 7.468 18.102 11.663 28.964 11.663s21.281-4.196 28.964-11.663c7.68-7.468 11.996-17.597 11.996-28.16 0-10.56-4.316-20.69-11.996-28.157-7.683-7.468-18.102-11.663-28.964-11.663z" />
<glyph unicode="&#xe911;" glyph-name="aside-branch" d="M613.376 449.024c17.349 17.334 29.957 38.83 36.621 62.433 6.664 23.601 7.155 48.517 1.431 72.366l51.098 21.914c1.559 0.666 3.259 0.937 4.946 0.786 1.69-0.151 3.315-0.719 4.728-1.651 1.416-0.934 2.578-2.207 3.379-3.699 0.804-1.492 1.224-3.162 1.221-4.856v-291.676l-143.36-61.44-122.88 61.44-129.085-55.316c-1.559-0.668-3.259-0.94-4.946-0.788-1.69 0.151-3.315 0.719-4.728 1.654-1.416 0.934-2.578 2.204-3.379 3.697-0.804 1.495-1.224 3.164-1.221 4.859v291.656l64.082 27.464c-4.508-23.053-3.279-46.861 3.581-69.325s19.141-42.895 35.761-59.494l101.376-101.396 101.376 101.376zM584.417 477.983l-72.417-72.376-72.417 72.397c-14.318 14.321-24.069 32.568-28.017 52.429-3.95 19.863-1.92 40.451 5.832 59.162 7.752 18.708 20.877 34.701 37.714 45.952 16.84 11.249 36.636 17.254 56.888 17.254s40.049-6.006 56.888-17.254c16.837-11.251 29.962-27.244 37.714-45.952 7.752-18.711 9.782-39.299 5.832-59.162-3.948-19.86-13.699-38.108-28.017-52.429v-0.020z" />
<glyph unicode="&#xe912;" glyph-name="aside-staff" d="M332.8 217.6c0 46.556 18.88 91.208 52.488 124.127 33.605 32.922 79.186 51.415 126.712 51.415s93.107-18.493 126.712-51.415c33.608-32.919 52.488-77.571 52.488-124.127h-358.4zM512 415.086c-74.255 0-134.4 58.916-134.4 131.656 0 72.742 60.145 131.658 134.4 131.658s134.4-58.916 134.4-131.658c0-72.74-60.145-131.656-134.4-131.656z" />
<glyph unicode="&#xe913;" glyph-name="aside-ideas" d="M375.468 632.32v-92.16h273.065v92.16h45.67c12.47 0 22.597-10.253 22.597-22.879v-368.963c-0.005-6.067-2.388-11.881-6.625-16.172-4.237-4.288-9.979-6.702-15.972-6.707h-364.406c-5.993 0.005-11.735 2.419-15.972 6.707-4.237 4.291-6.62 10.104-6.625 16.172v368.963c0 12.626 10.127 22.879 22.597 22.879h45.67zM420.977 678.4h182.047v-92.16h-182.047v92.16z" />
<glyph unicode="&#xe914;" glyph-name="aside-extend" d="M512 217.6c-127.181 0-230.4 103.219-230.4 230.4s103.219 230.4 230.4 230.4c127.181 0 230.4-103.219 230.4-230.4s-103.219-230.4-230.4-230.4zM488.96 448h-69.12l92.16-92.16 92.16 92.16h-69.12v92.16h-46.080v-92.16z" />
<glyph unicode="&#xe915;" glyph-name="arrow-icon" d="M511.996 387.878l222.058 222.059 67.885-67.882-289.943-289.94-289.941 289.94 67.882 67.882 222.059-222.059z" />
<glyph unicode="&#xe916;" glyph-name="question-button" d="M512 21.333c-235.648 0-426.667 191.019-426.667 426.667s191.019 426.667 426.667 426.667c235.648 0 426.667-191.019 426.667-426.667s-191.019-426.667-426.667-426.667zM512 106.667c90.526 0 177.348 35.964 241.361 99.972 64.009 64.013 99.972 150.835 99.972 241.361 0 90.527-35.964 177.347-99.972 241.359-64.013 64.013-150.835 99.974-241.361 99.974-90.527 0-177.347-35.962-241.359-99.974s-99.974-150.832-99.974-241.359c0-90.526 35.962-177.348 99.974-241.361 64.012-64.009 150.832-99.972 241.359-99.972zM469.333 320h85.333v-85.333h-85.333v85.333zM554.667 390.187v-27.52h-85.333v64c0 11.315 4.497 22.17 12.497 30.17s18.854 12.497 30.17 12.497c12.122 0 23.991 3.443 34.231 9.929 10.24 6.481 18.432 15.74 23.616 26.697s7.151 23.159 5.67 35.19c-1.481 12.030-6.345 23.392-14.033 32.765-7.684 9.373-17.873 16.37-29.38 20.179s-23.859 4.271-35.618 1.334c-11.759-2.937-22.443-9.153-30.805-17.925-8.367-8.771-14.067-19.738-16.444-31.624l-83.712 16.768c5.19 25.938 17.174 50.032 34.727 69.82s40.046 34.56 65.181 42.806c25.135 8.246 52.006 9.67 77.871 4.126s49.792-17.856 69.338-35.678c19.546-17.823 34.010-40.516 41.911-65.76s8.96-52.132 3.063-77.92c-5.897-25.788-18.534-49.545-36.625-68.847-18.086-19.298-40.977-33.451-66.325-41.007z" />
<glyph unicode="&#xe917;" glyph-name="arrow-back" horiz-adv-x="614" d="M217.306 447.994l355.294 355.294-108.612 108.612-463.906-463.906 463.906-463.906 108.612 108.612-355.294 355.294z" />
<glyph unicode="&#xe918;" glyph-name="thumbs-down" d="M438.044 372.955h-182.044c-15.088 0-29.558 5.993-40.226 16.663s-16.662 25.139-16.662 40.226v59.847c-0.008 7.435 1.442 14.8 4.267 21.675l88.036 213.761c2.148 5.212 5.794 9.667 10.479 12.802s10.194 4.807 15.832 4.805h478.72c7.543 0 14.78-2.997 20.113-8.331s8.331-12.569 8.331-20.113v-284.445c0-7.543-2.998-14.78-8.331-20.113s-12.57-8.331-20.113-8.331h-99.044c-4.554 0.003-9.042-1.089-13.084-3.183-4.045-2.096-7.526-5.129-10.155-8.849l-155.108-219.79c-1.96-2.779-4.853-4.762-8.149-5.592-3.3-0.831-6.784-0.449-9.828 1.070l-51.598 25.799c-14.521 7.259-26.121 19.265-32.873 34.028s-8.252 31.391-4.247 47.124l25.685 100.949zM654.222 446.569v239.275h-317.44l-80.782-196.153v-59.847h182.044c8.664 0 17.215-1.98 24.997-5.788s14.592-9.344 19.908-16.185c5.319-6.841 9.003-14.805 10.775-23.287 1.769-8.479 1.582-17.254-0.555-25.651l-25.685-100.921c-0.805-3.149-0.506-6.477 0.845-9.432 1.351-2.953 3.672-5.356 6.579-6.81l18.802-9.387 133.973 189.781c7.111 10.069 16.213 18.318 26.539 24.405zM711.111 458.288h56.889v227.556h-56.889v-227.556z" />
<glyph unicode="&#xe919;" glyph-name="thumbs-up" d="M585.956 523.045h182.044c15.087 0 29.557-5.993 40.226-16.663s16.663-25.139 16.663-40.226v-59.847c0.009-7.435-1.442-14.8-4.267-21.675l-88.036-213.76c-2.148-5.211-5.794-9.668-10.479-12.803s-10.194-4.807-15.832-4.804h-478.72c-7.544 0-14.779 2.995-20.113 8.331-5.334 5.333-8.331 12.57-8.331 20.113v284.444c0 7.543 2.997 14.78 8.331 20.113s12.569 8.331 20.113 8.331h99.044c4.554-0.003 9.042 1.089 13.084 3.183 4.045 2.096 7.526 5.129 10.155 8.849l155.108 219.79c1.96 2.779 4.853 4.763 8.149 5.592 3.3 0.83 6.784 0.45 9.828-1.070l51.598-25.799c14.521-7.258 26.121-19.266 32.873-34.028s8.252-31.391 4.247-47.124l-25.685-100.949zM369.778 449.431v-239.275h317.44l80.782 196.153v59.847h-182.044c-8.664 0-17.215 1.98-24.997 5.788s-14.592 9.344-19.908 16.185c-5.319 6.841-9.003 14.805-10.775 23.287-1.769 8.479-1.582 17.254 0.555 25.651l25.685 100.921c0.805 3.149 0.506 6.477-0.845 9.432-1.351 2.953-3.672 5.356-6.579 6.81l-18.802 9.387-133.973-189.781c-7.111-10.069-16.213-18.318-26.539-24.405zM312.889 437.712h-56.889v-227.556h56.889v227.556z" />
<glyph unicode="&#xe91a;" glyph-name="trash" d="M445.935 746.667c-13.683 0-24.774-10.616-24.774-23.711s-10.616-23.711-23.711-23.711h-116.676c-13.683 0-24.774-10.616-24.774-23.711s11.092-23.711 24.774-23.711h462.453c13.679 0 24.772 10.616 24.772 23.711s-11.093 23.711-24.772 23.711h-116.676c-13.099 0-23.714 10.616-23.714 23.711s-11.089 23.711-24.772 23.711h-132.13zM445.935 481.101c13.683 0 24.777-10.615 24.777-23.71v-221.303c0-13.099-11.093-23.714-24.777-23.714s-24.774 10.615-24.774 23.714v221.303c0 13.094 11.090 23.71 24.774 23.71zM602.837 457.391c0 13.094-11.089 23.71-24.772 23.71s-24.777-10.615-24.777-23.71v-221.303c0-13.099 11.093-23.714 24.777-23.714s24.772 10.615 24.772 23.714v221.303zM313.523 567.5c1.394 12.008 11.999 21.093 24.623 21.093h347.708c12.625 0 23.228-9.085 24.623-21.093l6.609-56.95c11.985-103.232 11.985-207.42 0-310.652l-0.649-5.606c-4.757-40.977-37.939-73.651-80.602-79.369-82.159-11.008-165.517-11.008-247.671 0-42.662 5.717-75.845 38.391-80.602 79.369l-0.651 5.606c-11.985 103.232-11.985 207.42 0 310.652l6.611 56.95zM396.417 541.17c-20.576 0-37.887-15.418-40.26-35.856-11.58-99.755-11.58-200.427 0-300.177l0.651-5.606c2.256-19.435 17.993-34.931 38.226-37.645 77.597-10.398 156.334-10.398 233.932 0 20.233 2.714 35.968 18.21 38.225 37.645l0.653 5.606c11.58 99.75 11.58 200.422 0 300.177-2.377 20.437-19.686 35.856-40.26 35.856h-231.167z" />
<glyph unicode="&#xe91b;" glyph-name="add-icon" d="M448 541.282v418.718h128v-418.718h418.722v-128h-418.722v-418.718h-128v418.718h-418.718v128h418.718z" />
<glyph unicode="&#xe91c;" glyph-name="settings" d="M546.854 739.93l38.673-54.816c9.498-13.459 25.89-20.25 42.121-17.447l66.108 11.413c29.056 5.016 54.323-20.248 49.306-49.304l-11.413-66.108c-2.803-16.231 3.989-32.627 17.446-42.121l54.814-38.677c24.094-16.998 24.094-52.727 0-69.726l-54.814-38.673c-13.457-9.498-20.25-25.89-17.446-42.121l11.413-66.108c5.018-29.056-20.25-54.323-49.306-49.306l-66.108 11.413c-16.23 2.803-32.623-3.989-42.121-17.446l-38.673-54.818c-16.998-24.090-52.727-24.090-69.726 0.004l-38.677 54.814c-9.493 13.457-25.889 20.25-42.121 17.446l-66.108-11.413c-29.056-5.018-54.32 20.25-49.304 49.306l11.413 66.108c2.802 16.23-3.988 32.623-17.447 42.121l-54.816 38.673c-24.093 16.998-24.093 52.727 0 69.726l54.816 38.677c13.459 9.493 20.25 25.889 17.447 42.121l-11.413 66.108c-5.016 29.056 20.248 54.32 49.304 49.304l66.108-11.413c16.231-2.802 32.627 3.988 42.121 17.447l38.677 54.816c16.998 24.093 52.727 24.093 69.726 0zM512 320.009c70.694 0 128 57.31 128 128 0 70.694-57.306 128.002-128 128.002s-128-57.307-128-128.002c0-70.69 57.306-128 128-128z" />
<glyph unicode="&#xe91d;" glyph-name="close" d="M403.395 447.994l-355.295 355.294 108.612 108.612 355.294-355.295 355.294 355.295 108.612-108.612-355.294-355.294 355.294-355.294-108.612-108.612-355.294 355.294-355.294-355.294-108.612 108.612 355.295 355.294z" />
<glyph unicode="&#xe91e;" glyph-name="checkbox" horiz-adv-x="1303" d="M1292.465 784.619l-827.013-827.012-454.645 454.649 164.563 164.563 290.082-290.082 662.447 662.446 164.566-164.563z" />
<glyph unicode="&#xe91f;" glyph-name="flash" d="M472.615 763.077h275.692l-236.308-236.308h196.923l-354.462-393.846 118.154 315.077h-196.923z" />
<glyph unicode="&#xe920;" glyph-name="refresh-fill" d="M512 21.333c-235.648 0-426.667 191.019-426.667 426.667s191.019 426.667 426.667 426.667 426.667-191.019 426.667-426.667-191.019-426.667-426.667-426.667zM717.653 231.424c57.46 54.545 93.208 131.482 93.208 216.768 0 164.949-133.718 298.667-298.667 298.667-46.055 0-89.675-10.424-128.629-29.041l1.801 0.775 41.6-74.88c25.050 11.173 54.283 17.68 85.035 17.68 117.821 0 213.333-95.513 213.333-213.333 0-0.021 0-0.041 0-0.062v0.003h-128l120.32-216.576zM638.635 177.408l-41.6 74.88c-25.050-11.173-54.283-17.68-85.035-17.68-117.821 0-213.333 95.513-213.333 213.333 0 0.021 0 0.041 0 0.062v-0.003h128l-120.32 216.576c-57.46-54.545-93.208-131.482-93.208-216.768 0-164.949 133.718-298.667 298.667-298.667 46.055 0 89.675 10.424 128.629 29.041l-1.801-0.775z" />
<glyph unicode="&#xe921;" glyph-name="pencil-fill" d="M550.4 667.392l180.992-181.035-422.4-422.357h-180.992v181.035l422.4 422.4zM610.731 727.723l90.496 90.539c7.721 7.718 18.386 12.492 30.165 12.492s22.445-4.774 30.165-12.492l120.704-120.704c7.718-7.721 12.492-18.386 12.492-30.165s-4.774-22.445-12.492-30.165l-90.539-90.496-180.992 180.992z" />
<glyph unicode="&#xe922;" glyph-name="menu-settings" d="M701.099 405.845c-16.038-72.917-72.477-129.327-144.155-145.091l-1.253-0.231c-12.529-2.905-26.915-4.571-41.691-4.571-106.274 0-192.427 86.152-192.427 192.427 0 14.775 1.665 29.162 4.818 42.982l-0.248-1.291c13.909 65.621 79.787 131.413 145.323 145.408 12.556 2.918 26.973 4.59 41.78 4.59 106.274 0 192.427-86.152 192.427-192.427 0-14.783-1.667-29.176-4.823-43.002l0.248 1.292zM986.539 522.581l-101.461 16.896c-7.847 31.964-18.526 59.959-32.151 86.177l1.004-2.124c-0.22 0.419-0.349 0.916-0.349 1.443 0 0.748 0.26 1.436 0.695 1.977l-0.005-0.006 63.659 78.848c6.242 7.628 10.024 17.479 10.024 28.213 0 11.474-4.322 21.939-11.426 29.855l0.037-0.042-40.363 45.312c-8.245 9.258-20.197 15.061-33.506 15.061-8.838 0-17.078-2.559-24.020-6.977l0.182 0.108-86.784-54.528c-35.958 25.373-78.010 45.083-123.309 56.685l-2.643 0.574c-1.236 0.299-2.176 1.296-2.387 2.541l-0.003 0.019-16.64 99.925c-3.611 21.38-21.989 37.461-44.122 37.461-0.028 0-0.056 0-0.085 0h-60.753c-0.020 0-0.044 0-0.067 0-22.117 0-40.476-16.088-44.014-37.2l-0.036-0.261-16.725-99.925c-0.214-1.264-1.153-2.261-2.368-2.556l-0.022-0.004c-39.376-10.054-73.961-24.863-105.528-44.13l1.677 0.951c-0.452-0.264-0.995-0.42-1.574-0.42-0.69 0-1.329 0.222-1.848 0.597l0.009-0.006-80.896 57.685c-7.226 5.209-16.258 8.33-26.019 8.33-12.365 0-23.56-5.009-31.666-13.109v0l-42.923-43.008c-8.1-8.106-13.109-19.301-13.109-31.666 0-9.761 3.122-18.793 8.421-26.152l-0.091 0.133 57.856-81.067c0.683-0.939 0.768-2.304 0.085-3.413-18.115-29.67-32.801-63.993-42.252-100.426l-0.585-2.657c-0.299-1.236-1.296-2.176-2.541-2.387l-0.019-0.003-100.352-16.725c-21.425-3.612-37.543-22.024-37.547-44.202v0-60.757c0-21.931 15.872-40.619 37.461-44.203l100.523-16.725c1.264-0.214 2.261-1.153 2.556-2.368l0.004-0.022c7.509-30.037 18.261-58.709 32.427-85.504 0.22-0.419 0.349-0.916 0.349-1.443 0-0.748-0.26-1.436-0.695-1.977l0.005 0.006-63.317-78.507c-6.182-7.618-9.925-17.432-9.925-28.121 0-11.432 4.282-21.864 11.33-29.78l-0.039 0.045 40.277-45.397c8.246-9.278 20.212-15.095 33.536-15.095 8.861 0 17.121 2.572 24.074 7.011l-0.18-0.108 86.187 54.187c0.492 0.331 1.097 0.529 1.749 0.529s1.258-0.198 1.761-0.536l-0.011 0.007c35.168-23.973 76.194-42.633 120.253-53.632l2.627-0.555 17.067-101.973c3.413-21.589 22.187-37.461 44.117-37.461h60.757c0.024 0 0.052 0 0.080 0 22.134 0 40.511 16.082 44.086 37.198l0.037 0.263 16.64 99.925c0.214 1.264 1.153 2.261 2.368 2.556l0.022 0.004c36.693 9.131 70.997 23.552 102.656 42.411 0.467 0.289 1.034 0.46 1.64 0.46 0.662 0 1.276-0.204 1.784-0.552l-0.011 0.007 84.309-60.245c17.749-12.715 42.155-10.752 57.685 4.779l42.923 43.008c8.13 8.085 13.162 19.279 13.162 31.647 0 9.775-3.143 18.816-8.472 26.167l0.089-0.13-59.989 84.139c-0.369 0.51-0.591 1.149-0.591 1.839 0 0.579 0.156 1.122 0.428 1.589l-0.008-0.015c18.203 29.768 32.924 64.211 42.346 100.784l0.577 2.64c0.299 1.236 1.296 2.176 2.541 2.387l0.019 0.003 99.328 16.555c21.38 3.611 37.461 21.989 37.461 44.122 0 0.028 0 0.056 0 0.085v-0.004 60.757c-0.003 22.178-16.122 40.591-37.283 44.166l-0.264 0.037z" />
<glyph unicode="&#xe923;" glyph-name="sitemap" horiz-adv-x="1117" d="M735.139 622.359l127.441-220.719c14.834 3.992 31.865 6.285 49.432 6.285 108.951 0 197.301-88.203 197.538-197.098v-0.023c0-0.036 0-0.080 0-0.123 0-108.943-88.316-197.26-197.26-197.26s-197.26 88.316-197.26 197.26c0 60.783 27.492 115.145 70.719 151.33l0.309 0.252-123.811 214.575c-19.473-7.080-41.951-11.174-65.385-11.174-27.016 0-52.761 5.441-76.2 15.288l1.297-0.483-122.415-211.968c48.093-36.372 78.846-93.477 78.846-157.764 0-108.943-88.316-197.26-197.26-197.26s-197.26 88.316-197.26 197.26c0 108.943 88.316 197.26 197.26 197.26 14.040 0 27.737-1.467 40.946-4.255l-1.288 0.228 130.42 225.932c-32.059 34.958-51.706 81.753-51.706 133.137 0 108.943 88.316 197.26 197.26 197.26s197.26-88.316 197.26-197.26c0-55.021-22.527-104.781-58.861-140.56l-0.025-0.025z" />
<glyph unicode="&#xe924;" glyph-name="aside-structure" d="M386.742 530.166c4.442-16.251 14.1-30.592 27.494-40.814 13.391-10.222 29.773-15.759 46.62-15.757h102.405c30.159-0.003 59.351-10.65 82.427-30.067 23.076-19.415 38.556-46.351 43.712-76.063 17.375-5.668 32.161-17.344 41.702-32.932 9.539-15.588 13.21-34.066 10.353-52.116-2.86-18.048-12.060-34.488-25.951-46.367-13.891-11.876-31.56-18.414-49.838-18.437-17.882-0.015-35.208 6.211-48.991 17.603-13.783 11.389-23.158 27.233-26.509 44.795-3.354 17.564-0.471 35.745 8.146 51.41 8.62 15.667 22.436 27.835 39.066 34.406-4.442 16.251-14.1 30.589-27.494 40.812-13.391 10.222-29.773 15.759-46.623 15.759h-102.405c-27.702-0.041-54.664 8.945-76.803 25.597v-81.144c17.088-6.039 31.493-17.925 40.663-33.554 9.172-15.631 12.524-34.002 9.459-51.863s-12.344-34.063-26.202-45.745c-13.857-11.681-31.398-18.089-49.523-18.089-18.122 0-35.663 6.408-49.521 18.089s-23.137 27.884-26.202 45.745c-3.064 17.861 0.287 36.232 9.459 51.863 9.17 15.629 23.575 27.515 40.663 33.554v162.291c-16.975 5.993-31.306 17.754-40.492 33.234-9.188 15.478-12.646 33.69-9.777 51.459 2.872 17.769 11.894 33.964 25.487 45.763 13.596 11.796 30.902 18.447 48.899 18.79 17.999 0.34 35.546-5.647 49.58-16.919 14.034-11.274 23.662-27.116 27.205-44.762 3.546-17.646 0.781-35.978-7.811-51.794-8.594-15.816-22.467-28.114-39.201-34.747v0z" />
<glyph unicode="&#xe925;" glyph-name="switcher-tab" d="M853.333 414.848v-232.329c0-8.802-3.597-17.242-9.997-23.467s-15.083-9.719-24.137-9.719h-273.067v265.515h307.2zM477.867 414.848v-265.515h-273.067c-9.053 0-17.735 3.494-24.136 9.719s-9.997 14.665-9.997 23.467v232.329h307.2zM477.867 746.667v-265.446h-307.2v232.261c0 8.801 3.596 17.242 9.997 23.465s15.084 9.72 24.136 9.72h273.067zM819.2 746.667c9.054 0 17.737-3.496 24.137-9.72s9.997-14.664 9.997-23.465v-232.261h-307.2v265.446h273.067z" />
<glyph unicode="&#xe926;" glyph-name="switcher-list" d="M379.259 729.098h431.407v-70.275h-431.407v70.275zM213.333 746.667h99.555v-105.412h-99.555v105.412zM213.333 500.706h99.555v-105.412h-99.555v105.412zM213.333 254.746h99.555v-105.412h-99.555v105.412zM379.259 483.136h431.407v-70.272h-431.407v70.272zM379.259 237.175h431.407v-70.272h-431.407v70.272z" />
<glyph unicode="&#xe927;" glyph-name="telegram" d="M853.124 681.821c2.752 32.372-22.016 51.255-55.036 40.465-121.084-43.162-239.411-89.022-360.495-132.184-82.553-29.674-162.357-59.349-244.912-91.72-13.759-5.393-22.015-13.487-22.015-26.974 0-13.491 8.256-21.585 22.015-26.978 38.526-13.487 79.804-26.978 118.33-40.465 24.766-8.094 46.781-5.393 68.796 8.094 82.554 51.255 165.11 102.511 250.418 156.463 11.008 8.093 24.768 13.488 35.776 21.581 5.5 2.698 11.004 5.395 16.508 0s2.752-10.79-2.752-16.186l-8.256-8.093-200.883-188.832c-19.264-18.884-19.264-35.072 2.752-51.255 66.044-48.559 134.839-94.417 200.883-142.976 33.024-24.277 68.796-10.79 77.052 29.675 22.016 91.721 99.068 431.621 101.82 469.388z" />
<glyph unicode="&#xe928;" glyph-name="settings-icon" d="M546.854 739.93l38.673-54.816c9.498-13.459 25.89-20.25 42.121-17.447l66.108 11.413c29.056 5.016 54.323-20.248 49.306-49.304l-11.413-66.108c-2.803-16.231 3.989-32.627 17.446-42.121l54.814-38.677c24.094-16.998 24.094-52.727 0-69.726l-54.814-38.673c-13.457-9.498-20.25-25.89-17.446-42.121l11.413-66.108c5.018-29.056-20.25-54.323-49.306-49.306l-66.108 11.413c-16.23 2.803-32.623-3.989-42.121-17.446l-38.673-54.818c-16.998-24.090-52.727-24.090-69.726 0.004l-38.677 54.814c-9.493 13.457-25.889 20.25-42.121 17.446l-66.108-11.413c-29.056-5.018-54.32 20.25-49.304 49.306l11.413 66.108c2.802 16.23-3.988 32.623-17.447 42.121l-54.816 38.673c-24.093 16.998-24.093 52.727 0 69.726l54.816 38.677c13.459 9.493 20.25 25.889 17.447 42.121l-11.413 66.108c-5.016 29.056 20.248 54.32 49.304 49.304l66.108-11.413c16.231-2.802 32.627 3.988 42.121 17.447l38.677 54.816c16.998 24.093 52.727 24.093 69.726 0zM512 320.009c70.694 0 128 57.31 128 128 0 70.694-57.306 128.002-128 128.002s-128-57.307-128-128.002c0-70.69 57.306-128 128-128z" />
<glyph unicode="&#xe930;" glyph-name="caret" d="M512 268.8l-204.8 204.8h409.6l-204.8-204.8z" />
<glyph unicode="&#xe931;" glyph-name="chat" d="M311.075 71.506l-225.75-50.176 50.176 225.751c-33.044 61.804-50.281 130.826-50.176 200.914 0 235.649 191.019 426.668 426.667 426.668 235.645 0 426.668-191.018 426.668-426.668 0-235.648-191.022-426.665-426.668-426.665-70.086-0.108-139.11 17.132-200.918 50.176zM323.448 161.659l27.861-14.93c49.432-26.419 104.635-40.182 160.683-40.064 67.51 0 133.501 20.014 189.632 57.523 56.136 37.504 99.886 90.813 125.716 153.185 25.836 62.372 32.599 131.001 19.425 197.213-13.169 66.212-45.681 127.032-93.414 174.768-47.739 47.736-108.554 80.245-174.771 93.416-66.212 13.17-134.84 6.411-197.211-19.424s-115.679-69.584-153.185-125.716c-37.507-56.132-57.525-122.125-57.525-189.636 0-56.914 13.866-111.698 40.106-160.681l14.891-27.863-27.947-125.737 125.739 27.945z" />
<glyph unicode="&#xe932;" glyph-name="fav" d="M512.036 766.764c100.224 89.984 255.104 86.998 351.657-9.728 96.512-96.768 99.84-250.88 10.071-351.404l-361.815-362.327-361.728 362.327c-89.77 100.524-86.4 254.892 10.070 351.404 96.64 96.598 251.221 99.84 351.745 9.728zM803.277 696.748c-64 64.086-167.255 66.688-234.24 6.528l-56.96-51.114-57.002 51.072c-67.2 60.245-170.24 57.6-234.411-6.571-63.573-63.573-66.773-165.333-8.192-232.576l299.52-299.99 299.518 299.948c58.624 67.286 55.424 168.918-8.233 232.704z" />
<glyph unicode="&#xe933;" glyph-name="instagram" d="M511.915 826.073c-154.922 0-302.038 13.782-358.23-130.432-23.21-59.562-19.84-136.918-19.84-247.682 0-97.193-3.114-188.544 19.84-247.634 56.064-144.302 204.374-130.478 358.145-130.478 148.353 0 301.313-15.442 358.186 130.478 23.255 60.16 19.84 136.361 19.84 247.634 0 147.714 8.151 243.074-63.488 314.668-72.535 72.534-170.624 63.446-314.623 63.446h0.17zM478.038 757.934c323.155 0.512 364.289 36.437 341.587-462.633-8.064-176.512-142.464-157.143-307.667-157.143-301.227 0-309.889 8.617-309.889 309.973 0 304.854 23.894 309.632 275.969 309.888v-0.085zM713.728 695.171c-25.047 0-45.353-20.309-45.353-45.354s20.306-45.354 45.353-45.354c25.047 0 45.353 20.309 45.353 45.354s-20.306 45.354-45.353 45.354zM511.915 642.137c-107.221 0-194.133-86.954-194.133-194.178 0-107.218 86.912-194.13 194.133-194.13s194.092 86.912 194.092 194.13c0 107.223-86.871 194.178-194.092 194.178zM511.915 573.998c166.613 0 166.828-252.073 0-252.073-166.57 0-166.826 252.073 0 252.073z" />
<glyph unicode="&#xe934;" glyph-name="notification" d="M870.4 268.8h85.335v-85.335h-853.335v85.335h85.334v298.666c0 90.527 35.962 177.347 99.974 241.359s150.832 99.974 241.357 99.974c90.527 0 177.347-35.962 241.362-99.974 64.010-64.012 99.973-150.832 99.973-241.359v-298.666zM785.065 268.8v298.666c0 67.896-26.967 133.010-74.977 181.020s-113.126 74.98-181.023 74.98c-67.894 0-133.008-26.971-181.018-74.98s-74.981-113.124-74.981-181.020v-298.666h511.998zM401.066 98.135h255.998v-85.335h-255.998v85.335z" />
<glyph unicode="&#xe935;" glyph-name="question" d="M511.992 21.33c-235.648 0-426.667 191.017-426.667 426.665s191.019 426.668 426.667 426.668c235.646 0 426.668-191.018 426.668-426.668 0-235.648-191.022-426.665-426.668-426.665zM511.992 106.665c90.525 0 177.345 35.958 241.36 99.973 64.010 64.010 99.973 150.83 99.973 241.357 0 90.528-35.963 177.348-99.973 241.36-64.015 64.013-150.835 99.975-241.36 99.975-90.527 0-177.347-35.962-241.359-99.975s-99.974-150.832-99.974-241.36c0-90.527 35.962-177.347 99.974-241.357 64.013-64.015 150.832-99.973 241.359-99.973zM469.325 319.995h85.335v-85.33h-85.335v85.33zM554.66 390.185v-27.52h-85.335v64c0 11.315 4.495 22.166 12.497 30.168s18.854 12.496 30.17 12.496c12.122 0.001 23.99 3.444 34.23 9.928 10.245 6.484 18.432 15.742 23.613 26.698 5.187 10.956 7.153 23.159 5.673 35.189s-6.344 23.392-14.029 32.765c-7.685 9.373-17.874 16.37-29.384 20.179-11.505 3.808-23.858 4.271-35.617 1.334s-22.443-9.153-30.808-17.925c-8.365-8.772-14.067-19.739-16.442-31.624l-83.712 16.769c5.19 25.937 17.174 50.032 34.727 69.82s40.047 34.561 65.181 42.806c25.134 8.246 52.007 9.67 77.869 4.126 25.866-5.544 49.797-17.856 69.34-35.679 19.548-17.822 34.012-40.515 41.912-65.759s8.96-52.134 3.062-77.92c-5.898-25.786-18.534-49.544-36.623-68.845-18.089-19.302-40.975-33.454-66.324-41.006z" />
<glyph unicode="&#xe936;" glyph-name="youtube" d="M22.281 197.381c20.907-74.158 84.864-87.726 89.131-90.327 105.258-28.672 695.254-28.759 802.093 0 73.17 21.161 86.61 86.057 89.129 90.327 27.863 148.224 29.696 341.46-1.28 509.652l1.28-8.363c-20.905 74.155-84.864 87.723-89.129 90.326-103.854 28.202-695.384 29.27-802.093 0-73.173-21.206-86.613-86.058-89.131-90.326-29.824-155.776-31.317-334.505 0-501.289zM409.951 292.229v311.167l267.348-155.821-267.348-155.346z" />
</font>
</defs>
</svg>
