<svg width="48" height="48" viewBox="0 0 48 48" fill="none" xmlns="http://www.w3.org/2000/svg">
<path d="M41.2 23.9778C41.2 17.3778 35.8222 12 29.2222 12C25.963 12 23.0296 13.3037 20.9111 15.3407C19.9333 14.1185 18.4667 13.3037 16.7556 13.3037C13.8222 13.3037 11.4593 15.6667 11.4593 18.6C8.28148 20.0667 6 23.2444 6 26.9926C6 32.1259 10.1556 36.2 15.2074 36.2H31.9926C37.1259 36.2 41.2 32.0444 41.2 26.9926C41.2 26.5852 41.2 24.5481 41.2 23.9778Z" fill="#DFDFDF"/>
<path d="M29.9277 25.6727L27.0519 21.3255L24.176 16.9784L21.3961 21.3255L18.5203 25.6727H22.3547V32.2202C22.3547 33.2526 23.1916 34.0895 24.224 34.0895C25.2563 34.0895 26.0932 33.2526 26.0932 32.2202V25.6727H29.9277Z" fill="#AB3326"/>
<path d="M29.9562 14.3629C29.9562 14.3629 35.5784 15.2592 38.2673 22.7555" stroke="white" stroke-width="2" stroke-miterlimit="10" stroke-linecap="round" stroke-linejoin="round"/>
<rect x="0.5" y="0.5" width="47" height="47" rx="23.5" stroke="#949191"/>
</svg>
