<svg width="48" height="48" viewBox="0 0 48 48" fill="none" xmlns="http://www.w3.org/2000/svg">
<path d="M24.1919 8.33952C15.6183 8.33952 8.57275 16.234 8.57275 25.911V26.5901H9.25184H10.1856H10.8647V25.911C10.8647 17.5073 16.8068 10.6315 24.107 10.6315C31.4073 10.6315 37.3493 17.5073 37.3493 25.911V26.5901H38.0284H38.9622H39.6413V25.911C39.811 16.234 32.7654 8.33952 24.1919 8.33952Z" fill="#B7B7B7" stroke="#B7B7B7" stroke-miterlimit="10" stroke-linecap="round" stroke-linejoin="round"/>
<path d="M24.1071 36.1823C30.1548 36.1823 35.0575 31.2797 35.0575 25.232C35.0575 19.1842 30.1548 14.2816 24.1071 14.2816C18.0594 14.2816 13.1567 19.1842 13.1567 25.232C13.1567 31.2797 18.0594 36.1823 24.1071 36.1823Z" fill="#DFDFDF" stroke="#DFDFDF" stroke-width="2" stroke-miterlimit="10" stroke-linecap="round" stroke-linejoin="round"/>
<path d="M12.052 28.4577C12.052 29.2217 11.4578 29.8159 10.6938 29.8159H8.65652C7.89254 29.8159 7.29834 29.2217 7.29834 28.4577V20.6481C7.29834 19.8842 7.89254 19.2899 8.65652 19.2899H10.6938C11.4578 19.2899 12.052 19.8842 12.052 20.6481V28.4577Z" fill="#AB3326" stroke="#AB3326" stroke-width="2" stroke-miterlimit="10" stroke-linecap="round" stroke-linejoin="round"/>
<path d="M41.0007 28.4577C41.0007 29.2217 40.4065 29.8159 39.6425 29.8159H37.6053C36.8413 29.8159 36.2471 29.2217 36.2471 28.4577V20.6481C36.2471 19.8842 36.8413 19.2899 37.6053 19.2899H39.6425C40.4065 19.2899 41.0007 19.8842 41.0007 20.6481V28.4577Z" fill="#AB3326" stroke="#AB3326" stroke-width="2" stroke-miterlimit="10" stroke-linecap="round" stroke-linejoin="round"/>
<path d="M9.42139 29.1367C9.42139 29.1367 11.1191 37.6254 19.6078 39.7475" stroke="#B7B7B7" stroke-width="2" stroke-miterlimit="10" stroke-linecap="round" stroke-linejoin="round"/>
<path d="M20.5577 40.6521C21.4333 39.3202 20.8728 37.4054 19.3058 36.3753C17.7388 35.3453 15.7588 35.59 14.8832 36.9219C14.0076 38.2538 14.5681 40.1686 16.1351 41.1987C17.7021 42.2287 19.6821 41.9841 20.5577 40.6521Z" fill="#AB3326" stroke="#AB3326" stroke-width="2" stroke-miterlimit="10" stroke-linecap="round" stroke-linejoin="round"/>
<rect x="0.5" y="0.5" width="47" height="47" rx="23.5" stroke="#949191"/>
</svg>
