<svg width="48" height="48" viewBox="0 0 48 48" fill="none" xmlns="http://www.w3.org/2000/svg">
<path d="M24.5314 25.3027L21.4157 21.0186C20.6368 19.9281 20.8704 18.3702 21.9609 17.5913L30.9965 11.1262C32.087 10.3473 33.6449 10.5809 34.4238 11.6714L37.5395 15.9555C38.3184 17.046 38.0848 18.6039 36.9943 19.3828L27.9587 25.8479C26.7903 26.6269 25.3103 26.3932 24.5314 25.3027Z" fill="#DFDFDF" stroke="#DFDFDF" stroke-width="2" stroke-miterlimit="10" stroke-linecap="round" stroke-linejoin="round"/>
<path d="M9.8125 32.2351L17.4192 21.3302L23.8332 28.9383L9.8125 32.2351Z" fill="#AB3326" stroke="#AB3326" stroke-width="2" stroke-miterlimit="10" stroke-linecap="round" stroke-linejoin="round"/>
<path d="M24.612 36.5971L26.014 35.5845C30.1423 32.6245 31.3107 27.4057 28.8182 23.8227L24.3783 17.6691C21.8078 14.0861 16.4332 13.5408 12.3049 16.5007L10.9028 17.4355L24.612 36.5971Z" fill="#DFDFDF" stroke="#DFDFDF" stroke-width="2" stroke-miterlimit="10" stroke-linecap="round" stroke-linejoin="round"/>
<path d="M34.8154 15.6298L34.1144 14.6951C33.3354 13.6046 32.0113 13.2151 31.2323 13.8383L26.9482 16.8761" stroke="white" stroke-width="2" stroke-miterlimit="10" stroke-linecap="round" stroke-linejoin="round"/>
<rect x="0.5" y="0.5" width="47" height="47" rx="23.5" stroke="#949191"/>
</svg>
