<svg width="52" height="52" viewBox="0 0 52 52" fill="none" xmlns="http://www.w3.org/2000/svg">
<path d="M35.4064 26.2284L20.5 51C21.6667 51.1667 24.4 51.5 26 51.5C28 51.5 33 51 36 49.5C38.4 48.3 41.3333 46.3333 42.5 45.5L45.5 42.5L47.5 40L39.138 26.2284C38.2495 24.8942 36.2949 24.8053 35.4064 26.2284Z" fill="#DFDFDF"/>
<path d="M13.5936 20.1231L4.5 39.5C5 40.1667 6.1 41.7 6.5 42.5C6.9 43.3 8.66667 44.8333 9.5 45.5L13 48L17 50C18.3333 50.3333 21.5 51.1 23.5 51.5C25.5 51.9 29 51.3333 30.5 51L17.3251 20.2121C16.6144 18.6111 14.3932 18.6111 13.5936 20.1231Z" fill="#C4C4C4"/>
<rect x="0.5" y="0.5" width="51" height="51" rx="25.5" stroke="#949191"/>
<path d="M31.1578 16.8007C32.9708 16.8007 34.4406 15.3309 34.4406 13.5179C34.4406 11.7048 32.9708 10.2351 31.1578 10.2351C29.3448 10.2351 27.875 11.7048 27.875 13.5179C27.875 15.3309 29.3448 16.8007 31.1578 16.8007Z" fill="#AB3326" stroke="#AB3326" stroke-width="2" stroke-miterlimit="10"/>
<path d="M31.1577 18.7564V16.8007" stroke="#AB3326" stroke-width="2" stroke-miterlimit="10" stroke-linecap="round" stroke-linejoin="round"/>
<path d="M31.1577 9.60647V8" stroke="#AB3326" stroke-width="2" stroke-miterlimit="10" stroke-linecap="round" stroke-linejoin="round"/>
<path d="M28.7128 16.1022L27.3857 17.4293" stroke="#AB3326" stroke-width="2" stroke-miterlimit="10" stroke-linecap="round" stroke-linejoin="round"/>
<path d="M34.7894 9.81601L33.6719 11.0034" stroke="#AB3326" stroke-width="2" stroke-miterlimit="10" stroke-linecap="round" stroke-linejoin="round"/>
<path d="M34.999 17.4293L33.6719 16.1022" stroke="#AB3326" stroke-width="2" stroke-miterlimit="10" stroke-linecap="round" stroke-linejoin="round"/>
<path d="M28.5033 11.0034L27.3857 9.81601" stroke="#AB3326" stroke-width="2" stroke-miterlimit="10" stroke-linecap="round" stroke-linejoin="round"/>
<path d="M27.2462 13.5877H26" stroke="#AB3326" stroke-width="2" stroke-miterlimit="10" stroke-linecap="round" stroke-linejoin="round"/>
<path d="M36.5001 13.5877H34.4404" stroke="#AB3326" stroke-width="2" stroke-miterlimit="10" stroke-linecap="round" stroke-linejoin="round"/>
<rect x="0.5" y="0.5" width="51" height="51" rx="25.5" stroke="#949191"/>
</svg>
