<svg width="41" height="40" viewBox="0 0 41 40" fill="none" xmlns="http://www.w3.org/2000/svg">
<rect x="0.714355" width="40" height="40" rx="20" fill="black"/>
<path d="M28.9268 24.8996C28.6298 25.6112 28.263 26.2898 27.8322 26.9249C27.2568 27.7696 26.7862 28.3544 26.423 28.679C25.86 29.2119 25.2574 29.4847 24.611 29.5C24.1479 29.5 23.589 29.364 22.9376 29.0887C22.2855 28.8142 21.6853 28.679 21.1363 28.679C20.5609 28.679 19.9443 28.815 19.2839 29.0887C18.6234 29.364 18.091 29.5077 17.6832 29.5221C17.064 29.5493 16.4474 29.2688 15.8307 28.679C15.4377 28.3255 14.9457 27.7203 14.3571 26.8628C13.7248 25.9475 13.2047 24.8851 12.7977 23.6749C12.3618 22.3678 12.1431 21.1014 12.1431 19.8759C12.1431 18.471 12.4378 17.2599 13.028 16.2452C13.4746 15.4486 14.1132 14.7841 14.8822 14.3159C15.6398 13.8487 16.5045 13.5971 17.3876 13.5867C17.8796 13.5867 18.5244 13.7439 19.326 14.0516C20.1251 14.3601 20.6385 14.5173 20.8631 14.5173C21.0315 14.5173 21.6019 14.3338 22.5678 13.9692C23.4817 13.6301 24.2535 13.4898 24.8851 13.5451C26.5972 13.6879 27.8842 14.3822 28.7394 15.6341C27.2081 16.5894 26.4502 17.9271 26.4659 19.6439C26.4791 20.9807 26.9505 22.0932 27.8759 22.9763C28.2855 23.3796 28.7634 23.7023 29.2859 23.9281C29.1728 24.2656 29.0531 24.5894 28.9268 24.8996ZM24.999 8.99053C24.999 10.0384 24.6275 11.0167 23.8853 11.9226C22.9913 12.9994 21.909 13.6207 20.736 13.523C20.7204 13.3913 20.7127 13.2587 20.7128 13.1261C20.7128 12.1198 21.138 11.0439 21.8933 10.1634C22.2706 9.71718 22.7502 9.34748 23.3314 9.05172C23.9118 8.76021 24.4607 8.59873 24.9775 8.57153C24.9924 8.71176 24.999 8.852 24.999 8.99053Z" fill="white"/>
</svg>
