<svg width="40" height="40" viewBox="0 0 40 40" fill="none" xmlns="http://www.w3.org/2000/svg">
<path d="M34.1418 34.1427C41.9522 26.3323 41.9522 13.6691 34.1418 5.85873C26.3314 -1.95168 13.6682 -1.95168 5.85782 5.85873C-1.95259 13.6691 -1.95259 26.3323 5.85782 34.1427C13.6682 41.9531 26.3314 41.9531 34.1418 34.1427Z" fill="#FEE475"/>
<path d="M33.7838 33.7854C41.3968 26.1725 41.3968 13.8295 33.7838 6.21659C26.1709 -1.39632 13.828 -1.39632 6.21506 6.21659C-1.39785 13.8295 -1.39785 26.1725 6.21506 33.7854C13.828 41.3983 26.1709 41.3983 33.7838 33.7854Z" fill="#FED425"/>
<path d="M33.8164 6.26416L6.26465 33.8159C8.11522 35.655 10.3221 37.1147 12.7819 38.1032L38.1037 12.7814C37.1267 10.3216 35.6555 8.10324 33.8164 6.26416Z" fill="white" fill-opacity="0.12"/>
<path d="M39.0009 24.345L24.3457 39.0002C31.6216 37.345 37.3457 31.6208 39.0009 24.345Z" fill="white" fill-opacity="0.12"/>
<path d="M10.426 3.023L3.02373 10.4253C2.20764 11.8736 1.56396 13.4253 1.13867 15.069L15.0697 1.13794C13.426 1.57472 11.8743 2.20691 10.426 3.023Z" fill="white" fill-opacity="0.12"/>
<path d="M31.2537 4.0918L4.09277 31.2527C4.41461 31.701 4.74795 32.1378 5.09277 32.5516L32.5525 5.0918C32.1387 4.74697 31.702 4.41364 31.2537 4.0918Z" fill="white" fill-opacity="0.12"/>
<path d="M20.3803 34.4943C28.1822 34.4943 34.5068 28.1697 34.5068 20.3679C34.5068 12.5661 28.1822 6.24146 20.3803 6.24146C12.5785 6.24146 6.25391 12.5661 6.25391 20.3679C6.25391 28.1697 12.5785 34.4943 20.3803 34.4943Z" fill="white"/>
<path d="M29.9889 29.9898C35.5055 24.4731 35.5055 15.5288 29.9889 10.0122C24.4722 4.49551 15.5279 4.4955 10.0113 10.0122C4.4946 15.5288 4.4946 24.4731 10.0113 29.9898C15.5279 35.5064 24.4722 35.5064 29.9889 29.9898Z" fill="#FEB724"/>
<path d="M6.64436 20.7703C6.64436 12.9657 12.9662 6.64389 20.7708 6.64389C24.472 6.64389 27.8398 8.06918 30.3685 10.4025C27.7938 7.62091 24.1041 5.87378 20.0122 5.87378C12.2076 5.87378 5.88574 12.1956 5.88574 20.0002C5.88574 24.0922 7.63287 27.7818 10.4145 30.3565C8.06965 27.8393 6.64436 24.4715 6.64436 20.7703Z" fill="#FB9D12"/>
<path d="M20 0.770115C30.9195 0.770115 39.7816 9.51724 39.9885 20.3908C39.9885 20.2644 40 20.1379 40 20.0115C40 8.95402 31.046 0 20 0C8.95402 0 0 8.95402 0 20C0 20.1264 0.0114943 20.2529 0.0114943 20.3793C0.218391 9.51724 9.08046 0.770115 20 0.770115Z" fill="white"/>
</svg>
