<svg width="24" height="24" viewBox="0 0 24 24" fill="none" xmlns="http://www.w3.org/2000/svg">
<path d="M8.5 18H18.737L20.5 19.385V9H21.5C21.7652 9 22.0196 9.10536 22.2071 9.29289C22.3946 9.48043 22.5 9.73478 22.5 10V23.5L18.045 20H9.5C9.23478 20 8.98043 19.8946 8.79289 19.7071C8.60536 19.5196 8.5 19.2652 8.5 19V18ZM5.955 16L1.5 19.5V4C1.5 3.73478 1.60536 3.48043 1.79289 3.29289C1.98043 3.10536 2.23478 3 2.5 3H17.5C17.7652 3 18.0196 3.10536 18.2071 3.29289C18.3946 3.48043 18.5 3.73478 18.5 4V16H5.955Z" fill="#FFFFFE"/>
</svg>
