<svg width="24" height="24" viewBox="0 0 24 24" fill="none" xmlns="http://www.w3.org/2000/svg">
<path d="M13.6471 13.2V8.8C13.6471 7.95131 13.3248 7.13737 12.7512 6.53726C12.1775 5.93714 11.3995 5.6 10.5882 5.6C9.77698 5.6 8.99896 5.93714 8.42532 6.53726C7.85168 7.13737 7.52941 7.95131 7.52941 8.8V13.2C7.52941 14.5791 8.0531 15.9018 8.98526 16.877C9.91743 17.8521 11.1817 18.4 12.5 18.4C13.8183 18.4 15.0826 17.8521 16.0147 16.877C16.9469 15.9018 17.4706 14.5791 17.4706 13.2V5.6H19V13.2C19 15.0035 18.3152 16.7331 17.0962 18.0083C15.8772 19.2836 14.2239 20 12.5 20C10.7761 20 9.12279 19.2836 7.90381 18.0083C6.68482 16.7331 6 15.0035 6 13.2V8.8C6 7.52696 6.4834 6.30606 7.34386 5.40589C8.20432 4.50571 9.37136 4 10.5882 4C11.8051 4 12.9721 4.50571 13.8326 5.40589C14.6931 6.30606 15.1765 7.52696 15.1765 8.8V13.2C15.1765 13.9426 14.8945 14.6548 14.3926 15.1799C13.8906 15.705 13.2098 16 12.5 16C11.7902 16 11.1094 15.705 10.6074 15.1799C10.1055 14.6548 9.82353 13.9426 9.82353 13.2V8.8H11.3529V13.2C11.3529 13.5183 11.4738 13.8235 11.6889 14.0485C11.904 14.2736 12.1958 14.4 12.5 14.4C12.8042 14.4 13.096 14.2736 13.3111 14.0485C13.5262 13.8235 13.6471 13.5183 13.6471 13.2Z" fill="#D54733"/>
</svg>
