<!-- <svg width="63" height="24" viewBox="0 0 63 24" fill="none" xmlns="http://www.w3.org/2000/svg">
<path d="M55.7435 9.63407H48.1504C48.1839 9.66814 49.0272 11.5192 52.8746 13.3022L55.3038 14.4341C56.8227 15.1546 58.2062 15.6681 58.2062 17.2454C58.2062 19.3022 56.2825 19.817 55.0008 19.817C52.8746 19.817 51.0192 18.6852 49.4333 16.4909L46.2279 18.8909V18.9249C48.0498 22.1136 51.1211 23.9987 54.9685 23.9987C59.9287 23.9987 63 21.0158 63 17.1066C63 14.2953 61.5494 12.5464 58.4782 11.0032L55.7435 9.63407ZM58.2062 7.37161C60.2641 7.37161 61.8512 5.76025 61.8512 3.70347C61.8512 1.61262 60.2653 0 58.2062 0C56.1819 0 54.5959 1.61136 54.5959 3.70347C54.5959 5.76025 56.1819 7.37161 58.2062 7.37161ZM8.9356 5.84227C3.89838 5.84227 0 9.80315 0 14.9211C0 20.0391 3.93315 24 9.34916 24C11.9708 24 14.2485 23.0536 16.1797 21.4057L14.2485 18.1804C12.8675 19.2669 11.3511 19.9331 9.48701 19.9331C7.00317 19.9331 5.24338 18.7066 4.69196 16.4984H16.6641C16.8019 15.9028 16.9745 14.8858 16.9745 13.9041C16.9745 9.41703 13.7306 5.84227 8.9356 5.84227ZM4.69196 13.1685C5.20984 10.9956 6.79702 9.66309 8.76297 9.66309C10.7289 9.66309 12.4204 10.9603 12.4539 13.1685H4.69196ZM32.2762 0C25.5773 0 20.1886 5.19243 20.1886 12C20.1886 18.8076 25.5761 24 32.2762 24C38.9763 24 44.4321 18.8076 44.4321 12C44.4321 5.19243 38.9751 0 32.2762 0ZM32.311 19.6139C28.0636 19.6139 24.9899 16.4909 24.9899 12C24.9899 7.54322 28.0636 4.38612 32.311 4.38612C36.49 4.38612 39.6321 7.54448 39.6321 12C39.6321 16.4909 36.4888 19.6139 32.311 19.6139Z" fill="#EA0029"/>
</svg> -->

<svg xmlns="http://www.w3.org/2000/svg" width="112" height="45" viewBox="0 0 112 45" fill="none">
<path d="M0.312 0.727998V35H24.552V28.664H7.848V0.727998H0.312ZM34.0931 22.616C34.0931 21.624 34.1891 20.648 34.3811 19.688C34.5731 18.728 34.8931 17.88 35.3411 17.144C35.8211 16.408 36.4451 15.816 37.2131 15.368C37.9811 14.888 38.9411 14.648 40.0931 14.648C41.2451 14.648 42.2051 14.888 42.9731 15.368C43.7731 15.816 44.3971 16.408 44.8451 17.144C45.3251 17.88 45.6611 18.728 45.8531 19.688C46.0451 20.648 46.1411 21.624 46.1411 22.616C46.1411 23.608 46.0451 24.584 45.8531 25.544C45.6611 26.472 45.3251 27.32 44.8451 28.088C44.3971 28.824 43.7731 29.416 42.9731 29.864C42.2051 30.312 41.2451 30.536 40.0931 30.536C38.9411 30.536 37.9811 30.312 37.2131 29.864C36.4451 29.416 35.8211 28.824 35.3411 28.088C34.8931 27.32 34.5731 26.472 34.3811 25.544C34.1891 24.584 34.0931 23.608 34.0931 22.616ZM27.2771 22.616C27.2771 24.6 27.5811 26.392 28.1891 27.992C28.7971 29.592 29.6611 30.968 30.7811 32.12C31.9011 33.24 33.2451 34.104 34.8131 34.712C36.3811 35.32 38.1411 35.624 40.0931 35.624C42.0451 35.624 43.8051 35.32 45.3731 34.712C46.9731 34.104 48.3331 33.24 49.4531 32.12C50.5731 30.968 51.4371 29.592 52.0451 27.992C52.6531 26.392 52.9571 24.6 52.9571 22.616C52.9571 20.632 52.6531 18.84 52.0451 17.24C51.4371 15.608 50.5731 14.232 49.4531 13.112C48.3331 11.96 46.9731 11.08 45.3731 10.472C43.8051 9.832 42.0451 9.512 40.0931 9.512C38.1411 9.512 36.3811 9.832 34.8131 10.472C33.2451 11.08 31.9011 11.96 30.7811 13.112C29.6611 14.232 28.7971 15.608 28.1891 17.24C27.5811 18.84 27.2771 20.632 27.2771 22.616ZM68.9569 29.144C67.9009 29.144 67.0209 28.92 66.3169 28.472C65.6129 28.024 65.0369 27.448 64.5889 26.744C64.1729 26.04 63.8689 25.256 63.6769 24.392C63.5169 23.496 63.4369 22.6 63.4369 21.704C63.4369 20.776 63.5329 19.896 63.7249 19.064C63.9489 18.2 64.2849 17.448 64.7329 16.808C65.2129 16.136 65.7889 15.608 66.4609 15.224C67.1649 14.84 67.9969 14.648 68.9569 14.648C70.0769 14.648 71.0049 14.856 71.7409 15.272C72.4769 15.688 73.0689 16.248 73.5169 16.952C73.9649 17.656 74.2849 18.472 74.4769 19.4C74.6689 20.296 74.7649 21.256 74.7649 22.28C74.7649 23.176 74.6369 24.04 74.3809 24.872C74.1569 25.672 73.8049 26.392 73.3249 27.032C72.8449 27.672 72.2369 28.184 71.5009 28.568C70.7649 28.952 69.9169 29.144 68.9569 29.144ZM81.2449 33.416V10.184H74.7649V13.496H74.6689C73.8369 12.056 72.7969 11.032 71.5489 10.424C70.3329 9.816 68.9089 9.512 67.2769 9.512C65.5489 9.512 64.0129 9.848 62.6689 10.52C61.3569 11.192 60.2529 12.104 59.3569 13.256C58.4609 14.376 57.7729 15.688 57.2929 17.192C56.8449 18.664 56.6209 20.2 56.6209 21.8C56.6209 23.496 56.8129 25.112 57.1969 26.648C57.6129 28.152 58.2529 29.48 59.1169 30.632C59.9809 31.752 61.0849 32.648 62.4289 33.32C63.7729 33.96 65.3729 34.28 67.2289 34.28C68.7329 34.28 70.1569 33.976 71.5009 33.368C72.8769 32.728 73.9329 31.752 74.6689 30.44H74.7649V33.704C74.7969 35.464 74.3649 36.92 73.4689 38.072C72.6049 39.224 71.2129 39.8 69.2929 39.8C68.0769 39.8 67.0049 39.544 66.0769 39.032C65.1489 38.552 64.5249 37.672 64.2049 36.392H57.4369C57.5329 37.8 57.9169 39 58.5889 39.992C59.2929 41.016 60.1569 41.848 61.1809 42.488C62.2369 43.128 63.3889 43.592 64.6369 43.88C65.9169 44.2 67.1649 44.36 68.3809 44.36C71.2289 44.36 73.5009 43.976 75.1969 43.208C76.8929 42.44 78.1889 41.496 79.0849 40.376C79.9809 39.288 80.5569 38.104 80.8129 36.824C81.1009 35.544 81.2449 34.408 81.2449 33.416ZM92.7806 22.616C92.7806 21.624 92.8766 20.648 93.0686 19.688C93.2606 18.728 93.5806 17.88 94.0286 17.144C94.5086 16.408 95.1326 15.816 95.9006 15.368C96.6686 14.888 97.6286 14.648 98.7806 14.648C99.9326 14.648 100.893 14.888 101.661 15.368C102.461 15.816 103.085 16.408 103.533 17.144C104.013 17.88 104.349 18.728 104.541 19.688C104.733 20.648 104.829 21.624 104.829 22.616C104.829 23.608 104.733 24.584 104.541 25.544C104.349 26.472 104.013 27.32 103.533 28.088C103.085 28.824 102.461 29.416 101.661 29.864C100.893 30.312 99.9326 30.536 98.7806 30.536C97.6286 30.536 96.6686 30.312 95.9006 29.864C95.1326 29.416 94.5086 28.824 94.0286 28.088C93.5806 27.32 93.2606 26.472 93.0686 25.544C92.8766 24.584 92.7806 23.608 92.7806 22.616ZM85.9646 22.616C85.9646 24.6 86.2686 26.392 86.8766 27.992C87.4846 29.592 88.3486 30.968 89.4686 32.12C90.5886 33.24 91.9326 34.104 93.5006 34.712C95.0686 35.32 96.8286 35.624 98.7806 35.624C100.733 35.624 102.493 35.32 104.061 34.712C105.661 34.104 107.021 33.24 108.141 32.12C109.261 30.968 110.125 29.592 110.733 27.992C111.341 26.392 111.645 24.6 111.645 22.616C111.645 20.632 111.341 18.84 110.733 17.24C110.125 15.608 109.261 14.232 108.141 13.112C107.021 11.96 105.661 11.08 104.061 10.472C102.493 9.832 100.733 9.512 98.7806 9.512C96.8286 9.512 95.0686 9.832 93.5006 10.472C91.9326 11.08 90.5886 11.96 89.4686 13.112C88.3486 14.232 87.4846 15.608 86.8766 17.24C86.2686 18.84 85.9646 20.632 85.9646 22.616Z" fill="#EA0029"/>
</svg>