<svg width="41" height="40" viewBox="0 0 41 40" fill="none" xmlns="http://www.w3.org/2000/svg">
<rect x="0.143066" width="40" height="40" rx="20" fill="#005FF9"/>
<path d="M23.2944 20.0001C23.2935 20.8356 22.9612 21.6366 22.3705 22.2274C21.7797 22.8182 20.9787 23.1505 20.1432 23.1514C19.3077 23.1505 18.5067 22.8182 17.9159 22.2274C17.3251 21.6366 16.9928 20.8356 16.9919 20.0001C16.9928 19.1646 17.3251 18.3636 17.9159 17.7728C18.5067 17.1821 19.3077 16.8498 20.1432 16.8489C20.9787 16.8498 21.7797 17.1821 22.3705 17.7728C22.9612 18.3636 23.2935 19.1646 23.2944 20.0001ZM20.1432 9.52393C14.367 9.52393 9.66699 14.224 9.66699 20.0001C9.66699 25.7763 14.367 30.4763 20.1432 30.4763C22.2594 30.4763 24.3001 29.8461 26.0442 28.6543L26.0744 28.6333L24.663 26.9923L24.6396 27.0083C23.2988 27.8715 21.7378 28.33 20.1432 28.3291C15.5504 28.3291 11.8142 24.5929 11.8142 20.0001C11.8142 15.4074 15.5504 11.6711 20.1432 11.6711C24.7359 11.6711 28.4713 15.4074 28.4713 20.0001C28.4713 20.5952 28.406 21.1978 28.2752 21.7903C28.0121 22.8714 27.2553 23.2025 26.687 23.1589C26.1154 23.112 25.4466 22.7046 25.4425 21.709V20.0001C25.4409 18.5951 24.8821 17.2481 23.8886 16.2547C22.8952 15.2612 21.5482 14.7024 20.1432 14.7008C18.7382 14.7024 17.3912 15.2612 16.3977 16.2547C15.4043 17.2481 14.8455 18.5951 14.8439 20.0001C14.8455 21.4051 15.4043 22.7521 16.3977 23.7456C17.3912 24.739 18.7382 25.2978 20.1432 25.2994C20.8416 25.301 21.5333 25.1635 22.178 24.8949C22.8226 24.6262 23.4073 24.2318 23.8978 23.7347C24.1823 24.181 24.5668 24.5548 25.0211 24.8265C25.4753 25.0981 25.9866 25.26 26.5144 25.2994C27.3768 25.3664 28.2333 25.115 28.9231 24.5929C29.5508 24.1168 30.0193 23.4279 30.2791 22.5982C30.3202 22.465 30.3964 22.159 30.3964 22.1565L30.399 22.1456C30.5515 21.481 30.6194 20.8189 30.6194 20.0001C30.6194 14.224 25.9193 9.52393 20.1432 9.52393Z" fill="#FF9E00"/>
</svg>
