<svg width="84" height="88" viewBox="0 0 84 88" fill="none" xmlns="http://www.w3.org/2000/svg">
<g filter="url(#filter0_d)">
<path d="M27.6971 38.6617C27.1686 38.2851 27.4351 37.4521 28.084 37.4521H56.736C57.4009 37.4521 57.6561 38.3188 57.0973 38.6791L42.055 48.3791C41.8256 48.5271 41.5291 48.5202 41.3068 48.3617L27.6971 38.6617Z" fill="url(#paint0_linear)" fill-opacity="0.01"/>
</g>
<g filter="url(#filter1_d)">
<path d="M64 38C64 48.7843 56.2405 57.7562 46 59.6372C44.7029 59.8755 42.5 62.5 42 64C41.5 62.5 39.2971 59.8755 38 59.6372C27.7595 57.7562 20 48.7843 20 38C20 25.8497 29.8497 16 42 16C54.1503 16 64 25.8497 64 38Z" fill="white"/>
<path d="M63.5 38C63.5 48.5386 55.9171 57.3073 45.9097 59.1455C45.4689 59.2264 45.0122 59.4922 44.5946 59.8111C44.1659 60.1385 43.73 60.5597 43.3272 61.0135C42.8256 61.5785 42.3519 62.2207 42 62.8292C41.6481 62.2207 41.1744 61.5785 40.6728 61.0135C40.27 60.5597 39.8341 60.1385 39.4054 59.8111C38.9878 59.4922 38.5311 59.2264 38.0903 59.1455C28.0829 57.3073 20.5 48.5387 20.5 38C20.5 26.1259 30.1259 16.5 42 16.5C53.8741 16.5 63.5 26.1259 63.5 38Z" stroke="#C8C8C8"/>
</g>
<g clip-path="url(#clip0)">
<rect x="34" y="30.6665" width="16" height="16" rx="0.933333" fill="white"/>
<path fill-rule="evenodd" clip-rule="evenodd" d="M34.3008 38.022H49.6854V33.7144H34.3008V38.022Z" fill="#FFFFFE"/>
<path fill-rule="evenodd" clip-rule="evenodd" d="M34.9162 46.3298H49.07C49.2332 46.3298 49.3897 46.2649 49.5052 46.1495C49.6206 46.0341 49.6854 45.8776 49.6854 45.7144V35.5605C47.0773 36.8015 44.2248 37.444 41.3365 37.4412C38.9294 37.4437 36.5432 36.9959 34.3008 36.1209V45.7144C34.3008 45.8776 34.3656 46.0341 34.481 46.1495C34.5964 46.2649 34.753 46.3298 34.9162 46.3298Z" fill="#514F4E"/>
<path fill-rule="evenodd" clip-rule="evenodd" d="M36.8492 40.6163H37.8412C38.3479 40.6163 38.9193 40.8064 39.1458 41.1713C39.1618 41.1975 39.1889 41.219 39.2104 41.219C39.2264 41.219 39.2375 41.1975 39.2375 41.1769C39.2375 41.1135 39.2049 41.0335 39.1889 40.9812L39.043 40.484H35.9978C35.9169 40.484 35.8953 40.4944 35.8953 40.5157C35.8953 40.531 35.9495 40.5473 35.987 40.563C36.2024 40.6163 36.2239 40.8433 36.2239 41.187V42.9855C36.2239 43.4667 36.1864 43.6144 35.987 43.7683C35.9495 43.8 35.8359 43.8317 35.8359 43.8473C35.8359 43.8633 35.8738 43.8686 35.9978 43.8686H39.2802L39.5175 43.107C39.5227 43.0858 39.5282 43.075 39.5282 43.0649C39.5282 43.0541 39.5227 43.0492 39.5119 43.0492C39.5015 43.0492 39.4313 43.1015 39.3667 43.16C39.0162 43.4877 38.4129 43.7363 37.9596 43.7363H37.3507C36.9842 43.7363 36.8492 43.6517 36.8492 43.2655V42.1498H37.6849C38.0624 42.1498 38.5042 42.1707 38.6602 42.5624C38.6766 42.5993 38.6818 42.6363 38.7033 42.6363C38.7196 42.6363 38.7249 42.6153 38.7249 42.5255V41.6526C38.7249 41.6 38.7196 41.5735 38.7033 41.5735C38.6876 41.5735 38.6713 41.5892 38.6602 41.6209C38.5849 41.8381 38.2402 42.0178 37.8464 42.0178H36.8495V40.6163H36.8492ZM44.4513 42.0224C44.4513 40.904 43.4144 40.1763 42.2975 40.1763C41.1806 40.1763 40.1436 40.904 40.1436 42.0224C40.1436 43.1409 41.1806 43.8686 42.2975 43.8686C43.4144 43.8686 44.4513 43.1409 44.4513 42.0224ZM43.6876 42.0224C43.6876 42.8317 43.3344 43.7326 42.2975 43.7326C41.2606 43.7326 40.9073 42.8317 40.9073 42.0224C40.9073 41.2132 41.2606 40.3123 42.2975 40.3123C43.3344 40.3123 43.6876 41.2135 43.6876 42.0224ZM47.9686 40.4098C47.5202 40.2415 47.0504 40.1763 46.5689 40.1763C45.8252 40.1763 44.9393 40.3938 44.9393 41.2843C44.9393 42.0498 45.891 42.191 46.4762 42.2615C46.9242 42.3317 47.5313 42.3317 47.5313 42.9347C47.5313 43.5917 46.8479 43.7326 46.3175 43.7326C45.8144 43.7326 45.1092 43.396 45.0326 42.8532C45.0273 42.8153 45.0215 42.7824 44.9941 42.7824C44.9667 42.7824 44.9615 42.8043 44.9341 42.9024L44.759 43.5486C45.3606 43.76 45.7104 43.8686 46.3559 43.8686C47.1482 43.8686 48.1436 43.5809 48.1436 42.6252C48.1436 42.2833 47.9959 41.8381 47.0175 41.7077C46.1809 41.5938 45.5519 41.615 45.5519 40.9581C45.5519 40.4098 46.1369 40.3123 46.5744 40.3123C47.247 40.3123 47.5969 40.6323 47.7338 41.0123C47.7442 41.0344 47.7498 41.0455 47.7609 41.0455C47.7772 41.0455 47.7886 41.0178 47.8153 40.9317L47.9686 40.4098Z" fill="#FFFFFE"/>
<path fill-rule="evenodd" clip-rule="evenodd" d="M34.3008 35.5881C36.22 36.1839 38.2183 36.4859 40.2279 36.4838C43.6509 36.4838 46.8777 35.6238 49.6854 34.1115V31.5607C49.6854 31.3975 49.6206 31.241 49.5052 31.1256C49.3897 31.0101 49.2332 30.9453 49.07 30.9453H34.9162C34.753 30.9453 34.5964 31.0101 34.481 31.1256C34.3656 31.241 34.3008 31.3975 34.3008 31.5607V35.5881Z" fill="#872D23"/>
</g>
<defs>
<filter id="filter0_d" x="20.7513" y="30.7855" width="43.3212" height="24.3667" filterUnits="userSpaceOnUse" color-interpolation-filters="sRGB">
<feFlood flood-opacity="0" result="BackgroundImageFix"/>
<feColorMatrix in="SourceAlpha" type="matrix" values="0 0 0 0 0 0 0 0 0 0 0 0 0 0 0 0 0 0 127 0" result="hardAlpha"/>
<feOffset/>
<feGaussianBlur stdDeviation="3.33333"/>
<feColorMatrix type="matrix" values="0 0 0 0 0.262745 0 0 0 0 0.160784 0 0 0 0 0.87451 0 0 0 0.8 0"/>
<feBlend mode="normal" in2="BackgroundImageFix" result="effect1_dropShadow"/>
<feBlend mode="normal" in="SourceGraphic" in2="effect1_dropShadow" result="shape"/>
</filter>
<filter id="filter1_d" x="0" y="0" width="84" height="88" filterUnits="userSpaceOnUse" color-interpolation-filters="sRGB">
<feFlood flood-opacity="0" result="BackgroundImageFix"/>
<feColorMatrix in="SourceAlpha" type="matrix" values="0 0 0 0 0 0 0 0 0 0 0 0 0 0 0 0 0 0 127 0" result="hardAlpha"/>
<feOffset dy="4"/>
<feGaussianBlur stdDeviation="10"/>
<feComposite in2="hardAlpha" operator="out"/>
<feColorMatrix type="matrix" values="0 0 0 0 0 0 0 0 0 0 0 0 0 0 0 0 0 0 0.12 0"/>
<feBlend mode="normal" in2="BackgroundImageFix" result="effect1_dropShadow"/>
<feBlend mode="normal" in="SourceGraphic" in2="effect1_dropShadow" result="shape"/>
</filter>
<linearGradient id="paint0_linear" x1="42.0976" y1="47.4482" x2="41.8827" y2="36.2725" gradientUnits="userSpaceOnUse">
<stop stop-color="#414141"/>
<stop offset="1"/>
</linearGradient>
<clipPath id="clip0">
<rect x="34" y="30.6665" width="16" height="16" rx="0.933333" fill="white"/>
</clipPath>
</defs>
</svg>
