<svg width="106" height="112" viewBox="0 0 106 112" fill="none" xmlns="http://www.w3.org/2000/svg">

<g filter="url(#filter0_d)">
<path d="M31.5456 49.9926C30.753 49.4276 31.1526 48.1782 32.126 48.1782H75.104C76.1013 48.1782 76.4841 49.4782 75.646 50.0186L53.0825 64.5687C52.7384 64.7906 52.2937 64.7803 51.9602 64.5426L31.5456 49.9926Z" fill="url(#paint0_linear)" fill-opacity="0.01"/>
</g>
<g filter="url(#filter1_d)">
<path class="pin-round" d="M86 49C86 65.1764 74.3607 78.6343 59 81.4559C57.0543 81.8133 53.75 85.75 53 88C52.25 85.75 48.9457 81.8133 47 81.4559C31.6393 78.6343 20 65.1764 20 49C20 30.7746 34.7746 16 53 16C71.2254 16 86 30.7746 86 49Z" fill="white"/>
<path d="M85.5 49C85.5 64.9308 74.0373 78.1854 58.9097 80.9641C58.3068 81.0748 57.6596 81.445 57.0437 81.9154C56.4166 82.3943 55.7744 83.0141 55.1777 83.6863C54.3208 84.6515 53.5268 85.76 53 86.7603C52.4732 85.76 51.6792 84.6515 50.8223 83.6863C50.2256 83.0141 49.5834 82.3943 48.9563 81.9154C48.3404 81.445 47.6932 81.0748 47.0903 80.9641C31.9627 78.1854 20.5 64.9308 20.5 49C20.5 31.0507 35.0507 16.5 53 16.5C70.9493 16.5 85.5 31.0507 85.5 49Z" stroke="#C8C8C8"/>
</g>
<rect x="41" y="38" width="24" height="24" rx="1.4" fill="white"/>
<path fill-rule="evenodd" clip-rule="evenodd" d="M41.4492 49.0333H64.5261V42.5718H41.4492V49.0333Z" fill="#FFFFFE"/>
<path fill-rule="evenodd" clip-rule="evenodd" d="M42.3723 61.4952H63.6031C63.8479 61.4952 64.0827 61.3979 64.2558 61.2248C64.4289 61.0517 64.5261 60.8169 64.5261 60.5721V45.3413C60.6139 47.2028 56.3352 48.1665 52.0028 48.1622C48.3922 48.166 44.8128 47.4943 41.4492 46.1818V60.5721C41.4492 60.8169 41.5465 61.0517 41.7196 61.2248C41.8927 61.3979 42.1275 61.4952 42.3723 61.4952Z" fill="#514F4E"/>
<path fill-rule="evenodd" clip-rule="evenodd" d="M45.2777 52.9242H46.7657C47.5258 52.9242 48.3829 53.2094 48.7226 53.7568C48.7466 53.796 48.7872 53.8283 48.8195 53.8283C48.8435 53.8283 48.8601 53.796 48.8601 53.7651C48.8601 53.67 48.8112 53.55 48.7872 53.4715L48.5684 52.7257H44.0006C43.8792 52.7257 43.8469 52.7414 43.8469 52.7732C43.8469 52.7963 43.9281 52.8208 43.9844 52.8443C44.3075 52.9242 44.3398 53.2648 44.3398 53.7803V56.478C44.3398 57.1999 44.2835 57.4214 43.9844 57.6522C43.9281 57.6997 43.7578 57.7472 43.7578 57.7708C43.7578 57.7948 43.8146 57.8026 44.0006 57.8026H48.9243L49.2801 56.6603C49.288 56.6285 49.2963 56.6123 49.2963 56.5971C49.2963 56.5809 49.288 56.5735 49.2718 56.5735C49.2561 56.5735 49.1509 56.652 49.054 56.7397C48.5283 57.2312 47.6232 57.6042 46.9434 57.6042H46.03C45.4803 57.6042 45.2777 57.4772 45.2777 56.898V55.2245H46.5312C47.0975 55.2245 47.7603 55.2559 47.9943 55.8434C48.0187 55.8988 48.0266 55.9542 48.0589 55.9542C48.0834 55.9542 48.0912 55.9228 48.0912 55.788V54.4786C48.0912 54.3997 48.0834 54.36 48.0589 54.36C48.0354 54.36 48.0109 54.3835 47.9943 54.4311C47.8812 54.7569 47.3643 55.0265 46.7735 55.0265H45.2781V52.9242H45.2777ZM56.6809 55.0334C56.6809 53.3557 55.1255 52.2642 53.4501 52.2642C51.7747 52.2642 50.2194 53.3557 50.2194 55.0334C50.2194 56.7111 51.7747 57.8026 53.4501 57.8026C55.1255 57.8026 56.6809 56.7111 56.6809 55.0334ZM55.5354 55.0334C55.5354 56.2472 55.0055 57.5986 53.4501 57.5986C51.8947 57.5986 51.3649 56.2472 51.3649 55.0334C51.3649 53.8195 51.8947 52.4682 53.4501 52.4682C55.0055 52.4682 55.5354 53.82 55.5354 55.0334ZM61.9567 52.6145C61.2843 52.362 60.5795 52.2642 59.8572 52.2642C58.7417 52.2642 57.4129 52.5905 57.4129 53.9262C57.4129 55.0745 58.8404 55.2863 59.7183 55.392C60.3903 55.4972 61.3009 55.4972 61.3009 56.4019C61.3009 57.3872 60.2758 57.5986 59.4801 57.5986C58.7255 57.5986 57.6677 57.0937 57.5527 56.2795C57.5449 56.2228 57.5361 56.1734 57.495 56.1734C57.454 56.1734 57.4461 56.2062 57.405 56.3534L57.1424 57.3226C58.0447 57.6397 58.5695 57.8026 59.5378 57.8026C60.7263 57.8026 62.2194 57.3711 62.2194 55.9375C62.2194 55.4248 61.9978 54.7569 60.5301 54.5612C59.2752 54.3905 58.3318 54.4223 58.3318 53.4369C58.3318 52.6145 59.2092 52.4682 59.8655 52.4682C60.8744 52.4682 61.3992 52.9482 61.6046 53.5182C61.6203 53.5514 61.6286 53.568 61.6452 53.568C61.6697 53.568 61.6867 53.5265 61.7269 53.3972L61.9567 52.6145Z" fill="#FFFFFE"/>
<path fill-rule="evenodd" clip-rule="evenodd" d="M41.4492 45.3821C44.328 46.2759 47.3255 46.7289 50.3398 46.7257C55.4745 46.7257 60.3146 45.4357 64.5261 43.1672V39.341C64.5261 39.0962 64.4289 38.8614 64.2558 38.6883C64.0827 38.5152 63.8479 38.418 63.6031 38.418H42.3723C42.1275 38.418 41.8927 38.5152 41.7196 38.6883C41.5465 38.8614 41.4492 39.0962 41.4492 39.341V45.3821Z" fill="#872D23"/>
<defs>
<filter id="filter0_d" x="21.125" y="38.1782" width="64.9817" height="36.55" filterUnits="userSpaceOnUse" color-interpolation-filters="sRGB">
<feFlood flood-opacity="0" result="BackgroundImageFix"/>
<feColorMatrix in="SourceAlpha" type="matrix" values="0 0 0 0 0 0 0 0 0 0 0 0 0 0 0 0 0 0 127 0" result="hardAlpha"/>
<feOffset/>
<feGaussianBlur stdDeviation="5"/>
<feColorMatrix type="matrix" values="0 0 0 0 0.262745 0 0 0 0 0.160784 0 0 0 0 0.87451 0 0 0 0.8 0"/>
<feBlend mode="normal" in2="BackgroundImageFix" result="effect1_dropShadow"/>
<feBlend mode="normal" in="SourceGraphic" in2="effect1_dropShadow" result="shape"/>
</filter>
<filter id="filter1_d" x="0" y="0" width="106" height="112" filterUnits="userSpaceOnUse" color-interpolation-filters="sRGB">
<feFlood flood-opacity="0" result="BackgroundImageFix"/>
<feColorMatrix in="SourceAlpha" type="matrix" values="0 0 0 0 0 0 0 0 0 0 0 0 0 0 0 0 0 0 127 0" result="hardAlpha"/>
<feOffset dy="4"/>
<feGaussianBlur stdDeviation="10"/>
<feComposite in2="hardAlpha" operator="out"/>
<feColorMatrix type="matrix" values="0 0 0 0 0 0 0 0 0 0 0 0 0 0 0 0 0 0 0.12 0"/>
<feBlend mode="normal" in2="BackgroundImageFix" result="effect1_dropShadow"/>
<feBlend mode="normal" in="SourceGraphic" in2="effect1_dropShadow" result="shape"/>
</filter>
<linearGradient id="paint0_linear" x1="53.1463" y1="63.1722" x2="52.8241" y2="46.4088" gradientUnits="userSpaceOnUse">
<stop stop-color="#414141"/>
<stop offset="1"/>
</linearGradient>
</defs>
</svg>
