<svg width="40" height="40" viewBox="0 0 40 40" fill="none" xmlns="http://www.w3.org/2000/svg">
<rect width="40" height="40" rx="20" fill="#289D37"/>
<path d="M28.4753 15.0645C29.1662 16.4642 29.5259 18.0198 29.5237 19.5984C29.4537 25.1014 25.2103 29.5237 19.9999 29.5237C14.7894 29.5237 10.5461 25.1014 10.4761 19.5984C10.4761 19.376 10.4847 19.1536 10.4976 18.9358L16.2638 22.3986L28.4753 15.0645ZM27.328 13.2309C27.5513 13.5101 27.7593 13.8026 27.9511 14.1069L16.2638 21.1233L10.6394 17.7467C10.703 17.3766 10.7891 17.0113 10.8972 16.6529L16.2638 19.8752L27.328 13.2309ZM25.7683 11.6652C26.0602 11.8986 26.3399 12.1486 26.6062 12.414L16.2638 18.6226L11.2624 15.6182C11.3998 15.2855 11.5547 14.9613 11.7264 14.6469L16.2638 17.3746L25.7683 11.6652ZM23.6929 10.4761C24.0758 10.6431 24.4476 10.8372 24.8058 11.057L16.2638 16.1855L12.2893 13.7982C12.4972 13.5033 12.7195 13.22 12.9553 12.9495L16.2638 14.9329L23.6929 10.4761Z" fill="white"/>
</svg>
