<svg xmlns="http://www.w3.org/2000/svg" xmlns:xlink="http://www.w3.org/1999/xlink"><defs>
<clipPath>
<rect width="12" height="12" fill="currentColor"/>
</clipPath>
</defs><symbol id="icn-arrow-down" viewBox="0 0 24 24">
<path d="M16 10L12 14L8 10" stroke="currentColor" stroke-width="1.5"/>
</symbol><symbol id="icn-arrow-right" viewBox="0 0 7 10">
<path d="M1 1L5 5L1 9" stroke="currentColor" stroke-width="1.5"/>
</symbol><symbol id="icn-arrow-to-bottom" viewBox="0 0 12 12">
<g>
<path d="M6 1V11M6 11L2 6.625M6 11L10 6.625" stroke="currentColor" stroke-width="1.5"/>
</g>

</symbol><symbol id="icn-burger" viewBox="0 0 40 40">
<path fill-rule="evenodd" clip-rule="evenodd" d="M26 17H14V15H26V17ZM26 21H14V19H26V21ZM14 25H26V23H14V25Z" fill="currentColor"/>
</symbol><symbol id="icn-calendar" viewBox="0 0 16 16">
<path d="M12 1.6H15.2C15.4122 1.6 15.6157 1.68429 15.7657 1.83431C15.9157 1.98434 16 2.18783 16 2.4V15.2C16 15.4122 15.9157 15.6157 15.7657 15.7657C15.6157 15.9157 15.4122 16 15.2 16H0.8C0.587827 16 0.384344 15.9157 0.234315 15.7657C0.0842854 15.6157 0 15.4122 0 15.2V2.4C0 2.18783 0.0842854 1.98434 0.234315 1.83431C0.384344 1.68429 0.587827 1.6 0.8 1.6H4V0H5.6V1.6H10.4V0H12V1.6ZM10.4 3.2H5.6V4.8H4V3.2H1.6V6.4H14.4V3.2H12V4.8H10.4V3.2ZM14.4 8H1.6V14.4H14.4V8Z" fill="currentColor"/>
</symbol><symbol id="icn-chev-left" viewBox="0 0 8 11">
<path d="M7 1L2 5.5L7 10" stroke="currentColor" stroke-width="2.5"/>
</symbol><symbol id="icn-chev-right" viewBox="0 0 32 32">
<path d="M13 10L19 16L13 22" stroke="currentColor" stroke-width="1.5"/>
</symbol><symbol id="icn-close" viewBox="0 0 40 40">
<path d="M12 12L28 28M12 28L28 12" stroke="currentColor" stroke-width="2"/>
</symbol><symbol id="icn-darr" viewBox="0 0 12 12">
<path d="M6 1V11M6 11L2 6.625M6 11L10 6.625" stroke="currentColor" stroke-width="1.5"/>
</symbol><symbol id="icn-del-small" viewBox="0 0 40 40">
<path d="M14 14L26 26M14 26L26 14" stroke="currentColor" stroke-width="2"/>
</symbol><symbol id="icn-del" viewBox="0 0 14 14">
<path d="M1 1L13 13M1 13L13 1" stroke="currentColor" stroke-width="2"/>
</symbol><symbol id="icn-fav-hollow" viewBox="0 0 14 13">
<path d="M7.00057 1.07529C8.64484 -0.407913 11.1858 -0.358684 12.7699 1.23564C14.3532 2.83066 14.4078 5.37089 12.9351 7.0278L6.99917 13L1.06468 7.0278C-0.408088 5.37089 -0.352789 2.82644 1.22988 1.23564C2.81535 -0.356574 5.3514 -0.410023 7.00057 1.07529ZM11.7787 2.22936C10.7287 1.17305 9.03474 1.13015 7.93576 2.12176L7.00127 2.96428L6.06609 2.12247C4.96361 1.12944 3.27314 1.17305 2.22036 2.23077C1.17738 3.27865 1.12488 4.95596 2.08597 6.06431L6.99987 11.009L11.9138 6.06502C12.8756 4.95596 12.8231 3.28076 11.7787 2.22936Z" fill="currentColor"/>
</symbol><symbol id="icn-fav" viewBox="0 0 14 13">
<path d="M7.00057 1.07529C8.64484 -0.407913 11.1858 -0.358684 12.7699 1.23564C14.3532 2.83066 14.4078 5.37089 12.9351 7.0278L6.99917 13L1.06468 7.0278C-0.408088 5.37089 -0.352789 2.82644 1.22988 1.23564C2.81535 -0.356574 5.3514 -0.410023 7.00057 1.07529Z" fill="currentColor"/>
</symbol><symbol id="icn-file" viewBox="0 0 24 24">
<path d="M13.6471 13.2V8.8C13.6471 7.95131 13.3248 7.13737 12.7512 6.53726C12.1775 5.93714 11.3995 5.6 10.5882 5.6C9.77698 5.6 8.99896 5.93714 8.42532 6.53726C7.85168 7.13737 7.52941 7.95131 7.52941 8.8V13.2C7.52941 14.5791 8.0531 15.9018 8.98526 16.877C9.91743 17.8521 11.1817 18.4 12.5 18.4C13.8183 18.4 15.0826 17.8521 16.0147 16.877C16.9469 15.9018 17.4706 14.5791 17.4706 13.2V5.6H19V13.2C19 15.0035 18.3152 16.7331 17.0962 18.0083C15.8772 19.2836 14.2239 20 12.5 20C10.7761 20 9.12279 19.2836 7.90381 18.0083C6.68482 16.7331 6 15.0035 6 13.2V8.8C6 7.52696 6.4834 6.30606 7.34386 5.40589C8.20432 4.50571 9.37136 4 10.5882 4C11.8051 4 12.9721 4.50571 13.8326 5.40589C14.6931 6.30606 15.1765 7.52696 15.1765 8.8V13.2C15.1765 13.9426 14.8945 14.6548 14.3926 15.1799C13.8906 15.705 13.2098 16 12.5 16C11.7902 16 11.1094 15.705 10.6074 15.1799C10.1055 14.6548 9.82353 13.9426 9.82353 13.2V8.8H11.3529V13.2C11.3529 13.5183 11.4738 13.8235 11.6889 14.0485C11.904 14.2736 12.1958 14.4 12.5 14.4C12.8042 14.4 13.096 14.2736 13.3111 14.0485C13.5262 13.8235 13.6471 13.5183 13.6471 13.2Z" fill="currentColor"/>
</symbol><symbol id="icn-gear" viewBox="0 0 24 24">
<path fill-rule="evenodd" clip-rule="evenodd" d="M12.8169 5.15812C12.4185 4.59345 11.5811 4.59345 11.1827 5.15812L10.2762 6.44286C10.0537 6.7583 9.66942 6.91747 9.289 6.85179L7.7396 6.58429C7.0586 6.46672 6.46647 7.05885 6.58404 7.73984L6.85154 9.28924C6.91722 9.66966 6.75806 10.0539 6.44262 10.2765L5.15788 11.1829C4.59321 11.5813 4.59321 12.4187 5.15788 12.8171L6.44262 13.7235C6.75806 13.9461 6.91722 14.3304 6.85154 14.7108L6.58404 16.2602C6.46647 16.9412 7.0586 17.5333 7.7396 17.4157L9.289 17.1482C9.66942 17.0825 10.0537 17.2417 10.2762 17.5572L11.1827 18.8419C11.5811 19.4066 12.4185 19.4066 12.8169 18.8419L13.7233 17.5572C13.9459 17.2417 14.3301 17.0825 14.7105 17.1482L16.2599 17.4157C16.9409 17.5333 17.5331 16.9412 17.4155 16.2602L17.148 14.7108C17.0823 14.3304 17.2415 13.9461 17.5569 13.7235L18.8416 12.8171C19.4063 12.4187 19.4063 11.5813 18.8416 11.1829L17.5569 10.2765C17.2415 10.0539 17.0823 9.66966 17.148 9.28924L17.4155 7.73984C17.5331 7.05885 16.9409 6.46672 16.2599 6.58429L14.7105 6.85179C14.3301 6.91747 13.9459 6.75831 13.7233 6.44286L12.8169 5.15812ZM12 15C13.6569 15 15 13.6569 15 12C15 10.3431 13.6569 9 12 9C10.3431 9 9 10.3431 9 12C9 13.6569 10.3431 15 12 15Z" fill="currentColor"/>
</symbol><symbol id="icn-imp" viewBox="0 0 20 20">
<path d="M10 20C4.477 20 0 15.523 0 10C0 4.477 4.477 0 10 0C15.523 0 20 4.477 20 10C20 15.523 15.523 20 10 20ZM9 13V15H11V13H9ZM9 5V11H11V5H9Z" fill="currentColor"/>
</symbol><symbol id="icn-people" viewBox="0 0 24 24">
    <path d="M2 22C2 19.8783 2.84285 17.8434 4.34315 16.3431C5.84344 14.8429 7.87827 14 10 14C12.1217 14 14.1566 14.8429 15.6569 16.3431C17.1571 17.8434 18 19.8783 18 22H2ZM10 13C6.685 13 4 10.315 4 7C4 3.685 6.685 1 10 1C13.315 1 16 3.685 16 7C16 10.315 13.315 13 10 13ZM17.363 15.233C18.8926 15.6261 20.2593 16.4918 21.2683 17.7068C22.2774 18.9218 22.8774 20.4242 22.983 22H20C20 19.39 19 17.014 17.363 15.233ZM15.34 12.957C16.178 12.2075 16.8482 11.2893 17.3066 10.2627C17.765 9.23616 18.0013 8.12429 18 7C18.0021 5.63347 17.6526 4.28937 16.985 3.097C18.1176 3.32459 19.1365 3.93737 19.8685 4.8312C20.6004 5.72502 21.0002 6.84473 21 8C21.0003 8.71247 20.8482 9.41676 20.5541 10.0657C20.26 10.7146 19.8305 11.2931 19.2946 11.7625C18.7586 12.2319 18.1285 12.5814 17.4464 12.7874C16.7644 12.9934 16.0462 13.0512 15.34 12.957Z" fill="currentColor"/>
</symbol><symbol id="icn-plus copy" viewBox="0 0 16 16">
<path d="M8 4V12.9706M3.51472 8.48528L12.4853 8.48528" stroke="currentColor" stroke-width="1.5"/>
</symbol><symbol id="icn-plus-thin" viewBox="0 0 16 16">
<path fill-rule="evenodd" clip-rule="evenodd" d="M8.94118 7.05882V0H7.05882L7.05882 7.05882H0V8.94118H7.05882L7.05882 16H8.94118V8.94118H16V7.05882H8.94118Z" fill="currentColor"/>
</symbol><symbol id="icn-plus" viewBox="0 0 24 24">
<path d="M12 8V16.9706M7.51472 12.4853L16.4853 12.4853" stroke="currentColor" stroke-width="2"/>
</symbol><symbol id="icn-talk" viewBox="0 0 16 16">
<path d="M5.66667 12H12.4913L13.6667 12.9233V6H14.3333C14.5101 6 14.6797 6.07024 14.8047 6.19526C14.9298 6.32029 15 6.48986 15 6.66667V15.6667L12.03 13.3333H6.33333C6.15652 13.3333 5.98695 13.2631 5.86193 13.1381C5.7369 13.013 5.66667 12.8435 5.66667 12.6667V12ZM3.97 10.6667L1 13V2.66667C1 2.48986 1.07024 2.32029 1.19526 2.19526C1.32029 2.07024 1.48986 2 1.66667 2H11.6667C11.8435 2 12.013 2.07024 12.1381 2.19526C12.2631 2.32029 12.3333 2.48986 12.3333 2.66667V10.6667H3.97Z" fill="currentColor"/>
</symbol><symbol id="icn-tarr" viewBox="0 0 12 12">
<path d="M6 11V1M6 1L2 5.375M6 1L10 5.375" stroke="currentColor" stroke-width="1.5"/>
</symbol><symbol id="icn-thin-arrow" viewBox="0 0 9 14">
    <path d="M1 1L7 7L1 13" stroke="currentColor" stroke-width="1.5"/>
</symbol><symbol id="icn-trash" viewBox="0 0 16 16">
<path d="M6.45161 1C6.13093 1 5.87097 1.24881 5.87097 1.55573C5.87097 1.86265 5.62216 2.11146 5.31524 2.11146H2.58065C2.25996 2.11146 2 2.36027 2 2.66719C2 2.97411 2.25996 3.22292 2.58065 3.22292H13.4194C13.74 3.22292 14 2.97411 14 2.66719C14 2.36027 13.74 2.11146 13.4194 2.11146H10.6848C10.3778 2.11146 10.129 1.86265 10.129 1.55573C10.129 1.24881 9.86907 1 9.54839 1H6.45161Z" fill="currentColor"/>
<path d="M6.45161 7.22418C6.77229 7.22418 7.03226 7.47299 7.03226 7.77991L7.03226 12.9667C7.03226 13.2737 6.77229 13.5225 6.45161 13.5225C6.13093 13.5225 5.87097 13.2737 5.87097 12.9667L5.87097 7.77991C5.87097 7.47299 6.13093 7.22418 6.45161 7.22418Z" fill="currentColor"/>
<path d="M10.129 7.77991C10.129 7.47299 9.86907 7.22418 9.54839 7.22418C9.22771 7.22418 8.96774 7.47299 8.96774 7.77991V12.9667C8.96774 13.2737 9.22771 13.5225 9.54839 13.5225C9.86907 13.5225 10.129 13.2737 10.129 12.9667V7.77991Z" fill="currentColor"/>
<path fill-rule="evenodd" clip-rule="evenodd" d="M3.3482 5.19923C3.38087 4.91779 3.62943 4.70487 3.92529 4.70487H12.0747C12.3706 4.70487 12.6191 4.91779 12.6518 5.19923L12.8067 6.53398C13.0876 8.9535 13.0876 11.3954 12.8067 13.8149L12.7915 13.9463C12.68 14.9067 11.9023 15.6725 10.9024 15.8065C8.97685 16.0645 7.02314 16.0645 5.09761 15.8065C4.09771 15.6725 3.32 14.9067 3.2085 13.9463L3.19325 13.8149C2.91236 11.3954 2.91236 8.9535 3.19325 6.53398L3.3482 5.19923ZM5.29103 5.81633C4.80878 5.81633 4.40305 6.17769 4.34743 6.65672C4.07602 8.99467 4.07602 11.3542 4.34743 13.6921L4.36269 13.8235C4.41557 14.279 4.78441 14.6422 5.25862 14.7058C7.07733 14.9495 8.92266 14.9495 10.7414 14.7058C11.2156 14.6422 11.5844 14.279 11.6373 13.8235L11.6526 13.6921C11.924 11.3542 11.924 8.99467 11.6526 6.65672C11.5969 6.17769 11.1912 5.81633 10.709 5.81633H5.29103Z" fill="currentColor"/>
</symbol><symbol id="icn-view-list" viewBox="0 0 24 24">
  <path d="M8.88889 5.41176H19V7.05882H8.88889V5.41176ZM5 5H7.33333V7.47059H5V5ZM5 10.7647H7.33333V13.2353H5V10.7647ZM5 16.5294H7.33333V19H5V16.5294ZM8.88889 11.1765H19V12.8235H8.88889V11.1765ZM8.88889 16.9412H19V18.5882H8.88889V16.9412Z" fill="currentColor"/>
</symbol><symbol id="icn-view-tile" viewBox="0 0 24 24">
  <path d="M20 12.777V18.2222C20 18.4285 19.9157 18.6263 19.7657 18.7722C19.6157 18.9181 19.4122 19 19.2 19H12.8V12.777H20ZM11.2 12.777V19H4.8C4.58783 19 4.38434 18.9181 4.23431 18.7722C4.08429 18.6263 4 18.4285 4 18.2222V12.777H11.2V12.777ZM11.2 5V11.2214H4V5.77778C4 5.5715 4.08429 5.37367 4.23431 5.22781C4.38434 5.08194 4.58783 5 4.8 5H11.2ZM19.2 5C19.4122 5 19.6157 5.08194 19.7657 5.22781C19.9157 5.37367 20 5.5715 20 5.77778V11.2214H12.8V5H19.2Z" fill="currentColor"/>
</symbol></svg>