<svg width="41" height="40" viewBox="0 0 41 40" fill="none" xmlns="http://www.w3.org/2000/svg">
<rect x="0.285645" width="40" height="40" rx="20" fill="#1EA1F2"/>
<path d="M30.762 15.1352C30.0487 15.4466 29.2922 15.6513 28.5175 15.7426C29.3339 15.2625 29.9445 14.5057 30.235 13.6139C29.4669 14.0617 28.6272 14.3778 27.7517 14.5489C27.3871 14.1643 26.9459 13.8578 26.4557 13.6486C25.9654 13.4395 25.4367 13.3321 24.9025 13.3333C24.3135 13.3327 23.7321 13.4634 23.2017 13.7154C22.6713 13.9675 22.2056 14.3344 21.8394 14.7888C21.4733 15.2431 21.2162 15.7731 21.0873 16.3392C20.9584 16.9052 20.9612 17.4926 21.0953 18.0574C19.5416 17.9807 18.0216 17.583 16.6341 16.8901C15.2465 16.1971 14.0225 15.2245 13.0413 14.0353C12.6937 14.6218 12.5117 15.2894 12.5144 15.9686C12.5128 16.6022 12.6704 17.2264 12.9733 17.7854C13.2761 18.3444 13.7148 18.8208 14.2501 19.1722C13.6293 19.1538 13.0221 18.988 12.4802 18.6891V18.7384C12.4802 20.6013 13.8294 22.1586 15.6151 22.5127C15.289 22.5987 14.9413 22.6472 14.585 22.6472C14.3342 22.6472 14.089 22.6229 13.8501 22.5768C14.0993 23.3415 14.5851 24.0103 15.2395 24.4894C15.8939 24.9686 16.684 25.2341 17.4993 25.2489C16.6886 25.8757 15.7603 26.3388 14.7677 26.6118C13.775 26.8848 12.7374 26.9623 11.7144 26.8397C13.5005 27.9719 15.58 28.5731 17.704 28.5713C24.8905 28.5713 28.8215 22.7081 28.8215 17.6204L28.8088 17.1232C29.5766 16.5824 30.2384 15.9088 30.762 15.1352Z" fill="white"/>
</svg>
