<svg width="41" height="40" viewBox="0 0 41 40" fill="none" xmlns="http://www.w3.org/2000/svg">
<rect x="0.571289" width="40" height="40" rx="20" fill="#3871BA"/>
<path d="M29.9893 25.5591C29.9685 25.5146 29.9456 25.471 29.9207 25.4287C29.574 24.8029 28.9112 24.0353 27.9321 23.1239L27.9112 23.1029L27.9017 23.0934L27.8912 23.082H27.8807C27.436 22.6582 27.155 22.3734 27.0369 22.2268C26.8217 21.9487 26.7731 21.6677 26.8912 21.382C26.974 21.1668 27.2864 20.7115 27.8283 20.0163C28.1131 19.6477 28.3379 19.3525 28.5045 19.1306C29.7055 17.5306 30.2264 16.5087 30.0664 16.0639L30.0045 15.9591C29.9636 15.8972 29.856 15.8391 29.6826 15.7877C29.5083 15.7353 29.2864 15.7268 29.016 15.761L26.016 15.782C25.9475 15.765 25.8757 15.767 25.8083 15.7877L25.6731 15.8191L25.6207 15.8448L25.5788 15.8763C25.5347 15.906 25.496 15.943 25.4645 15.9858C25.4212 16.041 25.3862 16.1023 25.3607 16.1677C25.0495 16.9771 24.677 17.7616 24.2464 18.5144C23.9893 18.9458 23.754 19.3191 23.5379 19.6363C23.3769 19.8834 23.196 20.1169 22.9969 20.3344C22.8735 20.4636 22.7411 20.5839 22.6007 20.6944C22.4826 20.7848 22.3931 20.8229 22.3302 20.8087C22.271 20.7957 22.212 20.7821 22.1531 20.7677C22.0545 20.7036 21.9739 20.6154 21.9188 20.5115C21.8542 20.3845 21.8138 20.2466 21.7998 20.1048C21.7808 19.9649 21.7684 19.8241 21.7626 19.6829C21.7598 19.5159 21.7617 19.3489 21.7683 19.182C21.775 18.9668 21.7779 18.8201 21.7779 18.7439C21.7779 18.4801 21.7836 18.1925 21.7941 17.8839L21.8198 17.1487C21.8274 16.9677 21.8302 16.7763 21.8302 16.5744C21.8302 16.3734 21.8179 16.2153 21.7941 16.1001C21.77 15.9854 21.7336 15.8736 21.6855 15.7668C21.6407 15.6637 21.5661 15.5765 21.4712 15.5163C21.3631 15.4513 21.2455 15.4037 21.1226 15.3753C20.755 15.2915 20.2864 15.2468 19.7169 15.2401C18.4255 15.2258 17.596 15.3096 17.2283 15.4896C17.0784 15.5692 16.9441 15.6753 16.8321 15.8029C16.7083 15.9553 16.6893 16.0391 16.7807 16.0534C17.1969 16.1153 17.4921 16.2648 17.6655 16.501L17.7283 16.6268C17.776 16.7172 17.8255 16.8772 17.874 17.1068C17.9217 17.3353 17.954 17.5896 17.9674 17.8677C18.0017 18.3753 18.0017 18.8106 17.9674 19.1715C17.9331 19.5334 17.9007 19.8144 17.8683 20.0163C17.8467 20.1859 17.7995 20.3513 17.7283 20.5068C17.6911 20.5854 17.6491 20.6618 17.6026 20.7353C17.5893 20.7561 17.5718 20.774 17.5512 20.7877C17.4613 20.8225 17.3657 20.8402 17.2693 20.8401C17.1721 20.8401 17.054 20.7915 16.916 20.6944C16.7565 20.5779 16.6113 20.443 16.4836 20.2925C16.2962 20.0685 16.1274 19.8296 15.9788 19.5782C15.7663 19.2265 15.5715 18.8645 15.395 18.4934L15.2283 18.1906C15.1245 17.9963 14.9826 17.7125 14.8017 17.341C14.6207 16.9696 14.4617 16.6087 14.3226 16.261C14.2759 16.1268 14.1887 16.0104 14.0731 15.9277L14.0207 15.8963C13.9693 15.8595 13.9133 15.8297 13.854 15.8077C13.7772 15.7762 13.697 15.7536 13.615 15.7401L10.7617 15.761C10.4702 15.761 10.2721 15.8277 10.1683 15.9591L10.1264 16.022C10.102 16.074 10.0911 16.1313 10.095 16.1887C10.095 16.2648 10.116 16.3591 10.1579 16.4696C10.574 17.4506 11.0274 18.3963 11.516 19.3077C12.0055 20.2172 12.4302 20.9515 12.7921 21.5077C13.1404 22.046 13.5086 22.5711 13.896 23.082C14.2702 23.5753 14.5188 23.8915 14.6398 24.0315C14.7617 24.1706 14.8569 24.2744 14.9264 24.3439L15.1874 24.5944C15.354 24.761 15.5979 24.961 15.9207 25.1944C16.2445 25.4268 16.6017 25.6563 16.994 25.882C17.3864 26.1087 17.8417 26.2925 18.3626 26.4344C18.8836 26.5772 19.3912 26.6344 19.8836 26.6077H21.0807C21.3236 26.5858 21.5074 26.5096 21.6331 26.3782L21.6741 26.3258C21.7097 26.2657 21.736 26.2005 21.7521 26.1325C21.7769 26.0468 21.7883 25.9506 21.7883 25.8468C21.7788 25.5752 21.8015 25.3035 21.856 25.0372C21.9083 24.7982 21.9674 24.6172 22.0331 24.4953C22.1298 24.3133 22.2674 24.1562 22.435 24.0363C22.4618 24.0224 22.4895 24.0103 22.5179 24.0001C22.6845 23.9448 22.8798 23.9982 23.1064 24.162C23.3321 24.3258 23.5436 24.5268 23.7417 24.7668C23.9398 25.0068 24.1769 25.2763 24.455 25.5753C24.7321 25.8744 24.975 26.0963 25.1836 26.242L25.3921 26.3677C25.5312 26.4515 25.7112 26.5277 25.9331 26.5972C26.155 26.6668 26.3493 26.6839 26.5169 26.6496L29.1826 26.6077C29.4455 26.6077 29.6512 26.5639 29.7969 26.4772C29.9426 26.3906 30.0293 26.2944 30.0569 26.1906C30.0851 26.074 30.087 25.9527 30.0626 25.8353C30.0483 25.7409 30.0237 25.6482 29.9893 25.5591Z" fill="white"/>
</svg>
